<svg width="25" height="24" viewBox="0 0 25 24" fill="none" xmlns="http://www.w3.org/2000/svg">
  <path d="M13.6055 0.620935C13.173 -0.206978 11.8281 -0.206978 11.3956 0.620935L0.146162 22.1416C0.0448962 22.3345 -0.0053069 22.5507 0.000443965 22.7691C0.00619483 22.9874 0.0677035 23.2006 0.178977 23.3877C0.29025 23.5749 0.447493 23.7296 0.635384 23.8369C0.823275 23.9442 1.03541 24.0004 1.25111 24H23.75C23.9655 24.0005 24.1775 23.9443 24.3653 23.8371C24.553 23.7299 24.7102 23.5752 24.8213 23.3881C24.9325 23.2011 24.9939 22.9881 24.9996 22.7698C25.0052 22.5516 24.955 22.3356 24.8537 22.1429L13.6055 0.620935ZM13.7505 20.2022H11.2506V17.6704H13.7505V20.2022ZM11.2506 15.1385V8.80892H13.7505L13.7517 15.1385H11.2506Z" fill="#EB5757"/>
</svg>
