<svg width="17" height="15" viewBox="0 0 17 15" fill="none" xmlns="http://www.w3.org/2000/svg">
  <path d="M8.40633 9.79747C8.98438 9.79747 9.53875 9.56785 9.9475 9.1591C10.3562 8.75036 10.5859 8.19598 10.5859 7.61793C10.5859 7.5541 10.583 7.49085 10.5775 7.42839L8.21678 9.78911C8.27925 9.79456 8.3423 9.79747 8.40633 9.79747ZM15.6206 0.876125L14.7893 0.045562C14.7601 0.016388 14.7205 0 14.6792 0C14.638 0 14.5984 0.016388 14.5692 0.045562L12.4418 2.17354C11.2682 1.57377 9.949 1.27389 8.48417 1.27389C4.74391 1.27389 1.95331 3.22186 0.112374 7.1178C0.0383769 7.27449 0 7.44562 0 7.6189C0 7.79218 0.0383769 7.96332 0.112374 8.12C0.847971 9.66943 1.73374 10.9113 2.76967 11.8457L0.71097 13.9036C0.681796 13.9328 0.665408 13.9724 0.665408 14.0136C0.665408 14.0549 0.681796 14.0945 0.71097 14.1237L1.54173 14.9544C1.57092 14.9836 1.6105 15 1.65178 15C1.69305 15 1.73263 14.9836 1.76182 14.9544L15.6206 1.09641C15.6351 1.08196 15.6466 1.06479 15.6544 1.04589C15.6623 1.02699 15.6663 1.00673 15.6663 0.98627C15.6663 0.965811 15.6623 0.945552 15.6544 0.926653C15.6466 0.907753 15.6351 0.890583 15.6206 0.876125ZM4.98132 7.61793C4.98127 7.02635 5.13445 6.44484 5.42593 5.93006C5.71741 5.41527 6.13726 4.98476 6.64458 4.68046C7.1519 4.37617 7.72938 4.20846 8.32078 4.19368C8.91217 4.17891 9.49731 4.31756 10.0192 4.59614L9.07303 5.5423C8.69146 5.42012 8.2836 5.40541 7.89421 5.49977C7.50482 5.59414 7.14895 5.79393 6.86564 6.07724C6.58233 6.36055 6.38253 6.71642 6.28817 7.10581C6.1938 7.4952 6.20852 7.90306 6.3307 8.28464L5.38454 9.23079C5.11903 8.73471 4.9805 8.1806 4.98132 7.61793Z" fill="#61035B"/>
  <path d="M16.856 7.11603C16.171 5.67338 15.3557 4.497 14.41 3.58691L11.605 6.39211C11.8415 7.01019 11.8939 7.68352 11.7559 8.33075C11.618 8.97798 11.2955 9.57141 10.8276 10.0393C10.3597 10.5073 9.76623 10.8297 9.119 10.9677C8.47177 11.1056 7.79844 11.0532 7.18036 10.8168L4.80115 13.196C5.90493 13.7068 7.13261 13.9621 8.48419 13.9621C12.2244 13.9621 15.015 12.0142 16.856 8.11823C16.93 7.96155 16.9684 7.79041 16.9684 7.61713C16.9684 7.44384 16.93 7.27271 16.856 7.11603Z" fill="#61035B"/>
</svg>
