<svg width="13" height="10" viewBox="0 0 13 10" fill="none" xmlns="http://www.w3.org/2000/svg">
<path fill-rule="evenodd" clip-rule="evenodd" d="M10.7557 0.710539H2.22918C2.04074 0.710539 1.86001 0.7854 1.72676 0.918652C1.59351 1.0519 1.51864 1.23263 1.51864 1.42108V8.52647C1.51864 8.71492 1.59351 8.89565 1.72676 9.0289C1.86001 9.16215 2.04074 9.23701 2.22918 9.23701H10.7557C10.9441 9.23701 11.1248 9.16215 11.2581 9.0289C11.3913 8.89565 11.4662 8.71492 11.4662 8.52647V1.42108C11.4662 1.23263 11.3913 1.0519 11.2581 0.918652C11.1248 0.7854 10.9441 0.710539 10.7557 0.710539ZM2.22918 0C1.85229 0 1.49083 0.14972 1.22433 0.416224C0.957826 0.682728 0.808105 1.04419 0.808105 1.42108V8.52647C0.808105 8.90337 0.957826 9.26482 1.22433 9.53133C1.49083 9.79783 1.85229 9.94755 2.22918 9.94755H10.7557C10.9423 9.94755 11.1271 9.91079 11.2995 9.83938C11.4719 9.76796 11.6286 9.66329 11.7605 9.53133C11.8925 9.39937 11.9971 9.24271 12.0686 9.0703C12.14 8.89788 12.1767 8.71309 12.1767 8.52647V1.42108C12.1767 1.04419 12.027 0.682728 11.7605 0.416224C11.494 0.14972 11.1326 0 10.7557 0H2.22918Z" fill="#03B1C7"/>
<path d="M8.37254 4.72236C8.42531 4.66973 8.49329 4.63504 8.56687 4.62318C8.64045 4.61132 8.71589 4.6229 8.78252 4.65628L11.4662 6.0397V9.23713H1.51868V7.81605L3.39876 6.14344C3.45684 6.08557 3.53314 6.04958 3.61472 6.04155C3.69631 6.03352 3.77816 6.05395 3.8464 6.09938L5.73644 7.35917L8.37254 4.72307V4.72236Z" fill="#03B1C7"/>
<path fill-rule="evenodd" clip-rule="evenodd" d="M4.00575 4.26297C4.14571 4.26297 4.28431 4.2354 4.41362 4.18184C4.54293 4.12827 4.66042 4.04977 4.75939 3.9508C4.85836 3.85183 4.93687 3.73433 4.99043 3.60502C5.04399 3.47571 5.07156 3.33712 5.07156 3.19716C5.07156 3.05719 5.04399 2.9186 4.99043 2.78929C4.93687 2.65998 4.85836 2.54249 4.75939 2.44352C4.66042 2.34455 4.54293 2.26604 4.41362 2.21248C4.28431 2.15892 4.14571 2.13135 4.00575 2.13135C3.72308 2.13135 3.45199 2.24364 3.25211 2.44352C3.05223 2.64339 2.93994 2.91449 2.93994 3.19716C2.93994 3.47983 3.05223 3.75092 3.25211 3.9508C3.45199 4.15068 3.72308 4.26297 4.00575 4.26297Z" fill="#03B1C7"/>
</svg>
