<svg width="9" height="13" viewBox="0 0 9 13" fill="none" xmlns="http://www.w3.org/2000/svg">
  <path d="M8.1 5.57143H2.7V2.78571C2.7 2.29317 2.88964 1.8208 3.22721 1.47252C3.56477 1.12423 4.02261 0.928571 4.5 0.928571C4.97739 0.928571 5.43523 1.12423 5.77279 1.47252C6.11036 1.8208 6.3 2.29317 6.3 2.78571H7.2C7.2 2.0469 6.91554 1.33834 6.40919 0.815917C5.90284 0.293494 5.21608 0 4.5 0C3.78392 0 3.09716 0.293494 2.59081 0.815917C2.08446 1.33834 1.8 2.0469 1.8 2.78571V5.57143H0.9C0.661305 5.57143 0.432387 5.66926 0.263604 5.8434C0.0948211 6.01754 0 6.25373 0 6.5V12.0714C0 12.3177 0.0948211 12.5539 0.263604 12.728C0.432387 12.9022 0.661305 13 0.9 13H8.1C8.33869 13 8.56761 12.9022 8.7364 12.728C8.90518 12.5539 9 12.3177 9 12.0714V6.5C9 6.25373 8.90518 6.01754 8.7364 5.8434C8.56761 5.66926 8.33869 5.57143 8.1 5.57143ZM8.1 12.0714H0.9V6.5H8.1V12.0714Z" fill="black"/>
</svg>
