<?xml version="1.0" standalone="no"?>
<!DOCTYPE svg PUBLIC "-//W3C//DTD SVG 1.1//EN" "http://www.w3.org/Graphics/SVG/1.1/DTD/svg11.dtd" >
<svg xmlns="http://www.w3.org/2000/svg">
<metadata>Generated by IcoMoon</metadata>
<defs>
<font id="icomoon" horiz-adv-x="1024">
<font-face units-per-em="1024" ascent="960" descent="-64" />
<missing-glyph horiz-adv-x="1024" />
<glyph unicode="&#x20;" horiz-adv-x="512" d="" />
<glyph unicode="&#xe900;" glyph-name="logout" d="M480 0.001h-415.999v895.998h415.999c17.665 0 31.999 14.337 31.999 31.999s-14.337 31.999-31.999 31.999h-448c-17.662 0-31.999-14.334-31.999-31.999v-959.997c0-17.665 14.337-31.999 31.999-31.999h447.998c17.665 0 31.999 14.337 31.999 31.999 0.003 17.665-14.334 31.999-31.996 31.999zM1014.717 470.337l-220.799 223.967c-12.512 12.64-32.768 12.608-45.248 0-12.512-12.608-12.512-33.087 0-45.695l166.401-168.8h-658.974c-17.665 0-31.999-14.465-31.999-32.321s14.337-32.321 31.999-32.321h658.974l-166.401-168.8c-12.512-12.64-12.512-33.087 0-45.695 12.512-12.64 32.768-12.64 45.248 0l220.767 223.967c12.353 12.449 12.48 33.281 0.032 45.698z" />
<glyph unicode="&#xe901;" glyph-name="leftPageAW" d="M824.323 839.68l-390.827-391.68 390.827-391.68-120.32-120.32-512 512 512 512 120.32-120.32z" />
<glyph unicode="&#xe902;" glyph-name="leftPageArrow" d="M824.323 839.68l-390.827-391.68 390.827-391.68-120.32-120.32-512 512 512 512 120.32-120.32z" />
<glyph unicode="&#xe903;" glyph-name="loading_animated" d="M824.907 545.28h112.64v-194.56h-112.64c-6.701-21.344-14.454-39.613-23.72-56.951l0.859 1.76 79.649-79.649-137.575-137.575-79.649 79.649c-15.578-8.407-33.847-16.16-52.871-22.223l-2.32-0.638v-112.64h-194.56v112.64c-21.344 6.701-39.613 14.454-56.951 23.72l1.76-0.859-79.649-79.649-137.575 137.575 79.649 79.649c-8.407 15.578-16.16 33.847-22.223 52.871l-0.638 2.32h-112.64v194.56h112.64c6.701 21.344 14.454 39.613 23.72 56.951l-0.859-1.76-79.649 79.649 137.575 137.575 79.649-79.649c15.578 8.407 33.847 16.16 52.871 22.223l2.32 0.638v112.64h194.56v-112.64c21.344-6.701 39.613-14.454 56.951-23.72l-1.76 0.859 79.649 79.649 137.575-137.575-79.649-79.649c8.407-15.578 16.16-33.847 22.223-52.871l0.638-2.32zM512 683.52c-130.074 0-235.52-105.446-235.52-235.52s105.446-235.52 235.52-235.52v0c130.074 0 235.52 105.446 235.52 235.52s-105.446 235.52-235.52 235.52v0z" />
<glyph unicode="&#xe904;" glyph-name="rightPageAW" d="M199.677 839.68l390.827-391.68-390.827-391.68 120.32-120.32 512 512-512 512-120.32-120.32z" />
<glyph unicode="&#xe905;" glyph-name="filterIcon" horiz-adv-x="1081" d="M1038.603 869.426h-643.967c-17.704 52.583-67.441 90.574-125.918 90.574s-108.213-37.991-125.918-90.574h-100.519c-23.35 0-42.281-18.931-42.281-42.281s18.931-42.281 42.281-42.281h100.522c17.704-52.584 67.441-90.575 125.918-90.575s108.214 37.991 125.918 90.575h643.97c23.347 0 42.28 18.93 42.28 42.281s-18.933 42.281-42.286 42.281zM268.718 778.852c-26.628 0-48.293 21.665-48.293 48.294s21.665 48.293 48.293 48.293c26.629 0 48.294-21.664 48.294-48.293s-21.665-48.294-48.294-48.294zM1038.603 507.126h-100.517c-17.71 52.584-67.447 90.574-125.924 90.574-58.47 0-108.208-37.99-125.912-90.574h-643.97c-23.35 0-42.281-18.93-42.281-42.281s18.931-42.281 42.281-42.281h643.97c17.704-52.582 67.442-90.572 125.918-90.572s108.214 37.99 125.918 90.572h100.523c23.347 0 42.28 18.931 42.28 42.281s-18.933 42.281-42.286 42.281zM812.169 416.552c-26.63 0-48.293 21.664-48.293 48.293s21.663 48.294 48.293 48.294c26.63 0 48.293-21.665 48.293-48.294s-21.663-48.293-48.293-48.293zM1038.603 144.828h-462.814c-17.707 52.582-67.443 90.573-125.921 90.573s-108.213-37.99-125.918-90.573h-281.67c-23.35 0-42.281-18.933-42.281-42.28 0-23.353 18.931-42.286 42.281-42.286h281.67c17.704-52.582 67.441-90.573 125.918-90.573s108.214 37.99 125.921 90.573h462.82c23.347 0 42.28 18.933 42.28 42.286 0 23.347-18.933 42.28-42.286 42.28zM449.869 54.249c-26.629 0-48.293 21.663-48.293 48.293s21.664 48.293 48.293 48.293c26.629 0 48.294-21.663 48.294-48.287 0-26.63-21.665-48.299-48.294-48.299z" />
<glyph unicode="&#xe906;" glyph-name="horizontalDots" d="M256 448c0-70.699-57.301-128-128-128s-128 57.301-128 128 57.301 128 128 128 128-57.301 128-128zM640 448c0-70.699-57.301-128-128-128s-128 57.301-128 128 57.301 128 128 128 128-57.301 128-128zM1024 448c0-70.699-57.301-128-128-128s-128 57.301-128 128 57.301 128 128 128 128-57.301 128-128z" />
<glyph unicode="&#xe907;" glyph-name="search-icon" horiz-adv-x="977" d="M656.389 558.487c0 145.786-116.829 261.876-258.377 261.876-141.546 0-258.375-116.090-258.375-261.876 0-145.787 116.829-261.876 258.375-261.876 141.548 0 258.377 116.089 258.377 261.876zM611.379 219.485c-61.668-39.582-134.861-62.511-213.368-62.511-219.816 0-398.012 179.763-398.012 401.513s178.196 401.513 398.012 401.513c219.814 0 398.013-179.763 398.013-401.513 0-91.869-30.585-176.531-82.046-244.189l254.343-257.62-98.104-99.37-258.839 262.177z" />
<glyph unicode="&#xe908;" glyph-name="appel-sur-smartphone-blue" d="M740.265 960h-456.53c-38.034 0-69.164-31.1-69.164-69.164v-885.641c0-38.065 31.13-69.195 69.164-69.195h456.53c38.034 0 69.163 31.071 69.163 69.163v885.673c0 38.063-31.13 69.164-69.163 69.164zM438.973 910.146h146.054c4.62 0 8.365-3.745 8.365-8.397 0-4.623-3.745-8.368-8.365-8.368h-146.054c-4.62 0-8.365 3.745-8.365 8.368 0 4.652 3.745 8.397 8.365 8.397zM512-29.416c-19.105 0-34.584 15.474-34.584 34.611 0 19.133 15.478 34.58 34.584 34.58s34.584-15.447 34.584-34.58c0-19.137-15.478-34.611-34.584-34.611zM761.301 64h-498.601v786.315h498.601v-786.315z" />
<glyph unicode="&#xe909;" glyph-name="appel-sur-smartphone" horiz-adv-x="951" d="M687.389 925.813h-423.92c-35.317 0-64.223-29.507-64.223-65.62v-840.261c0-36.111 28.906-65.646 64.223-65.646h423.92c35.317 0 64.223 29.477 64.223 65.62v840.287c0 36.113-28.906 65.62-64.223 65.62zM407.618 878.513h135.621c4.29 0 7.768-3.553 7.768-7.967 0-4.386-3.478-7.939-7.768-7.939h-135.621c-4.29 0-7.768 3.553-7.768 7.939 0 4.414 3.478 7.967 7.768 7.967zM475.429-12.906c-17.741 0-32.113 14.683-32.113 32.837s14.373 32.812 32.113 32.812c17.741 0 32.113-14.658 32.113-32.812s-14.373-32.837-32.113-32.837zM706.922 75.725h-462.986v746.023h462.986v-746.023z" />
<glyph unicode="&#xe90a;" glyph-name="Burger-menu" horiz-adv-x="1536" d="M1457.632 852.988h-1368.833c-24.444 0-43.999 23.594-43.999 47.187s19.555 42.469 43.999 42.469h1368.833c24.448 0 44-18.875 44-42.469s-19.552-47.187-44-47.187zM1457.632 414.144h-1368.833c-24.444 0-43.999 18.876-43.999 42.469s19.555 42.469 43.999 42.469h1368.833c24.448 0 44-18.876 44-42.469s-19.552-42.469-44-42.469zM1457.632-24.704h-1368.833c-24.444 0-43.999 18.874-43.999 42.47 0 23.59 19.555 42.47 43.999 42.47h1368.833c24.448 0 44-18.88 44-42.47 0-23.597-19.552-42.47-44-42.47z" />
<glyph unicode="&#xe90b;" glyph-name="calendar" d="M951.866 350.884v311.916c0 10.495-8.506 19-18.999 19h-96.266v20.267c0 10.495-8.506 19-19.002 19-10.493 0-18.999-8.505-18.999-19v-20.267h-76.001v20.267c0 10.495-8.506 19-18.999 19-10.496 0-19.002-8.505-19.002-19v-20.267h-75.998v20.267c0 10.495-8.506 19-19.002 19-10.493 0-18.999-8.505-18.999-19v-20.267h-76.001v20.267c0 10.495-8.503 19-18.999 19s-18.999-8.505-18.999-19v-20.267h-96.27c-10.493 0-18.999-8.505-18.999-19v-495.267c0-10.496 8.506-18.999 18.999-18.999h316.419c30.717-45.793 82.954-76.001 142.114-76.001 94.29 0 171.001 76.711 171.001 171.001 0 40.622-14.251 77.978-38.001 107.349zM456.602 643.8v-19c0-10.496 8.503-19.002 18.999-19.002s18.999 8.506 18.999 19.002v19h76.001v-19c0-10.496 8.506-19.002 18.999-19.002 10.496 0 19.002 8.506 19.002 19.002v19h75.998v-19c0-10.496 8.506-19.002 19.002-19.002 10.493 0 18.999 8.506 18.999 19.002v19h76.001v-19c0-10.496 8.506-19.002 18.999-19.002 10.496 0 19.002 8.506 19.002 19.002v19h77.264v-75.999h-534.531v75.999h77.268zM379.334 186.532v343.269h534.531v-144.152c-27.187 18.231-59.873 28.884-95 28.884-60.037 0-112.94-31.106-143.459-78.042-2.567 1.297-5.461 2.045-8.54 2.045h-38.001c-10.493 0-18.999-8.506-18.999-19.002 0-10.493 8.506-18.999 18.999-18.999h28.785c-4.291-12.104-7.26-24.829-8.721-38.001h-20.064c-10.493 0-18.999-8.506-18.999-18.999 0-10.496 8.506-19.002 18.999-19.002h20.064c1.461-13.172 4.424-25.897 8.721-38.001h-278.316zM818.865 110.534c-73.335 0-132.997 59.662-132.997 133.001 0 73.335 59.662 132.997 132.997 132.997 73.339 0 133.001-59.662 133.001-132.997 0-73.339-59.662-133.001-133.001-133.001zM898.843 254.577h-68.267v68.267c0 12.571-10.185 22.757-22.753 22.757-12.571 0-22.757-10.185-22.757-22.757v-91.020c0-12.571 10.185-22.757 22.757-22.757h91.020c12.571 0 22.757 10.185 22.757 22.757 0 12.568-10.185 22.753-22.757 22.753zM529.067 482.133h-34.133c-9.428 0-17.067-7.639-17.067-17.067s7.639-17.067 17.067-17.067h34.133c9.428 0 17.067 7.639 17.067 17.067s-7.639 17.067-17.067 17.067zM529.067 413.867h-34.133c-9.428 0-17.067-7.639-17.067-17.067s7.639-17.067 17.067-17.067h34.133c9.428 0 17.067 7.639 17.067 17.067s-7.639 17.067-17.067 17.067zM529.067 345.6h-34.133c-9.428 0-17.067-7.639-17.067-17.067s7.639-17.067 17.067-17.067h34.133c9.428 0 17.067 7.639 17.067 17.067s-7.639 17.067-17.067 17.067zM631.467 448h34.133c9.428 0 17.067 7.639 17.067 17.067s-7.639 17.067-17.067 17.067h-34.133c-9.428 0-17.067-7.639-17.067-17.067s7.639-17.067 17.067-17.067zM631.467 379.733h34.133c9.428 0 17.067 7.639 17.067 17.067s-7.639 17.067-17.067 17.067h-34.133c-9.428 0-17.067-7.639-17.067-17.067s7.639-17.067 17.067-17.067zM529.067 277.333h-34.133c-9.428 0-17.067-15.281-17.067-34.133s7.639-34.133 17.067-34.133h34.133c9.428 0 17.067 15.281 17.067 34.133s-7.639 34.133-17.067 34.133zM776.533 448h51.2c14.141 0 25.6 7.639 25.6 17.067s-11.459 17.067-25.6 17.067h-51.2c-14.141 0-25.6-7.639-25.6-17.067s11.459-17.067 25.6-17.067z" />
<glyph unicode="&#xe90c;" glyph-name="check-mark-blue" d="M918.471 813.741c-15.474 15.531-40.846 15.531-56.32 0l-468.48-468.368-241.266 242.918c-15.474 15.588-40.676 15.588-56.263 0l-84.537-84.48c-15.474-15.417-15.474-40.789 0-56.32l353.678-356.013c15.474-15.417 40.676-15.417 56.32 0l581.348 581.407c15.701 15.531 15.701 40.96 0 56.548l-84.48 84.309z" />
<glyph unicode="&#xe90d;" glyph-name="check-mark-small" horiz-adv-x="1280" d="M1158.58 944c-19.519 21.333-51.524 21.333-71.044 0l-590.95-643.36-304.339 333.676c-19.519 21.411-51.309 21.411-70.971 0l-106.637-116.045c-19.519-21.176-19.519-56.029 0-77.362l446.138-489.027c19.519-21.176 51.309-21.176 71.044 0l733.325 798.633c19.808 21.334 19.808 56.264 0 77.676l-106.565 115.809z" />
<glyph unicode="&#xe90e;" glyph-name="check-mark" d="M918.471 813.741c-15.474 15.531-40.846 15.531-56.32 0l-468.48-468.368-241.266 242.918c-15.474 15.588-40.676 15.588-56.263 0l-84.537-84.48c-15.474-15.417-15.474-40.789 0-56.32l353.678-356.013c15.474-15.417 40.676-15.417 56.32 0l581.348 581.407c15.701 15.531 15.701 40.96 0 56.548l-84.48 84.309z" />
<glyph unicode="&#xe90f;" glyph-name="cross" d="M399.219 448.042l-382.86-382.877c-10.531-10.539-16.342-24.601-16.359-39.594 0-15.003 5.811-29.081 16.359-39.603l33.551-33.542c10.548-10.565 24.609-16.351 39.62-16.351 14.985 0 29.047 5.787 39.595 16.351l382.859 382.851 382.876-382.851c10.532-10.565 24.602-16.351 39.603-16.351 14.985 0 29.055 5.787 39.587 16.351l33.567 33.542c21.842 21.845 21.842 57.377 0 79.197l-382.867 382.877 382.867 382.859c10.54 10.556 16.342 24.618 16.342 39.611s-5.802 29.055-16.342 39.603l-33.559 33.542c-10.532 10.556-24.61 16.351-39.587 16.351-15.002 0-29.071-5.794-39.603-16.351l-382.876-382.859-382.859 382.859c-10.548 10.556-24.61 16.351-39.595 16.351h-0.017c-14.994 0-29.055-5.794-39.603-16.351l-33.551-33.542c-10.531-10.54-16.342-24.609-16.342-39.603s5.811-29.055 16.342-39.603l382.851-382.867z" />
<glyph unicode="&#xe910;" glyph-name="Document" horiz-adv-x="569" d="M501.464 125.63h-471.966c-7.823 0-15.326 3.197-20.858 8.886s-8.64 13.407-8.64 21.455v546.133c0 8.047 3.108 15.764 8.64 21.454s13.035 8.886 20.858 8.886h471.966c7.824 0 15.326-3.197 20.859-8.886s8.64-13.408 8.64-21.454v-546.133c0-8.048-3.106-15.766-8.64-21.455s-13.035-8.886-20.859-8.886zM117.992 611.081v-121.363h117.992v121.363h-117.992zM117.992 429.037v-60.681h294.98v60.681h-294.98zM117.992 307.674v-60.681h294.98v60.681h-294.98zM294.98 580.741v-60.681h117.992v60.681h-117.992z" />
<glyph unicode="&#xe911;" glyph-name="empty-image" horiz-adv-x="1536" d="M0 960h1536v-1024h-1536v1024z" />
<glyph unicode="&#xe912;" glyph-name="eye" horiz-adv-x="4096" d="M2048 732.672c-207.034 0-383.841-118.044-455.475-284.672 71.634-166.628 248.441-284.672 455.475-284.672 207.036 0 383.84 118.044 455.475 284.672-71.635 166.628-248.439 284.672-455.475 284.672zM2048 258.219c-114.283 0-207.034 85.022-207.034 189.781s92.751 189.781 207.034 189.781c114.284 0 207.036-85.022 207.036-189.781s-92.752-189.781-207.036-189.781zM2048 561.869c-68.735 0-124.221-50.861-124.221-113.869s55.485-113.869 124.221-113.869c68.735 0 124.219 50.861 124.219 113.869s-55.484 113.869-124.219 113.869z" />
<glyph unicode="&#xe913;" glyph-name="eyeCrossed" horiz-adv-x="4096" d="M2048 732.672c-207.034 0-383.841-118.044-455.475-284.672 71.634-166.628 248.441-284.672 455.475-284.672 207.036 0 383.84 118.044 455.475 284.672-71.635 166.628-248.439 284.672-455.475 284.672zM2048 258.219c-114.283 0-207.034 85.022-207.034 189.781s92.751 189.781 207.034 189.781c114.284 0 207.036-85.022 207.036-189.781s-92.752-189.781-207.036-189.781zM2048 561.869c-68.735 0-124.221-50.861-124.221-113.869s55.485-113.869 124.221-113.869c68.735 0 124.219 50.861 124.219 113.869s-55.484 113.869-124.219 113.869zM1754.726 99.738c-27.993 23.54-16.373 83.373 25.963 133.647l433.245 514.479c42.336 50.274 99.346 71.939 127.339 48.399v0c27.993-23.54 16.373-83.373-25.963-133.647l-433.239-514.471c-42.343-50.282-99.352-71.947-127.345-48.407v0z" />
<glyph unicode="&#xe914;" d="M512 960c282.77 0 512-229.23 512-512s-229.23-512-512-512c-282.77 0-512 229.23-512 512s229.23 512 512 512z" />
<glyph unicode="&#xe915;" d="M401.198 303.59v291.131h194.928v-55.033h-129.392v-60.915h115.108v-55.033h-115.108v-120.149h-65.536z" />
<glyph unicode="&#xe916;" glyph-name="gear" d="M1011.337 525.82l-114.462 34.134c-7.91 27.603-18.795 54.269-32.457 79.531l56.034 104.788c2.103 3.956 2.871 8.483 2.193 12.91-0.674 4.427-2.765 8.518-5.952 11.666l-81.66 81.92c-3.149 3.185-7.245 5.271-11.678 5.948-4.429 0.677-8.96-0.093-12.919-2.193l-104.209-55.637c-25.536 14.313-52.578 25.76-80.636 34.133l-34.167 112.981c-1.442 4.164-4.173 7.762-7.795 10.277s-7.953 3.817-12.361 3.718h-115.486c-4.433-0.021-8.751-1.455-12.314-4.095s-6.191-6.347-7.501-10.582l-34.167-112.64c-28.289-8.328-55.563-19.776-81.317-34.133l-102.5 55.296c-3.959 2.1-8.491 2.87-12.922 2.193s-8.527-2.762-11.677-5.948l-83.025-80.896c-3.189-3.148-5.277-7.239-5.954-11.666s0.093-8.954 2.195-12.91l55.35-102.4c-14.348-25.62-25.807-52.751-34.167-80.896l-113.092-34.134c-4.239-1.306-7.95-3.934-10.593-7.492-2.642-3.563-4.078-7.872-4.099-12.305v-115.371c0.021-4.429 1.457-8.742 4.099-12.301 2.642-3.563 6.353-6.187 10.593-7.497l113.775-34.129c8.451-27.678 19.908-54.345 34.167-79.531l-56.033-107.179c-2.103-3.955-2.872-8.482-2.195-12.911s2.765-8.516 5.954-11.665l81.658-81.579c3.151-3.187 7.246-5.274 11.677-5.948 4.431-0.678 8.963 0.094 12.922 2.193l105.575 56.32c24.975-13.466 51.319-24.222 78.583-32.085l34.168-115.029c1.306-4.237 3.934-7.945 7.501-10.581 3.563-2.641 7.876-4.075 12.314-4.096h115.486c4.433 0.021 8.751 1.455 12.314 4.096 3.563 2.637 6.191 6.345 7.501 10.581l34.167 115.371c27.034 7.906 53.146 18.662 77.901 32.085l106.257-56.661c3.959-2.099 8.491-2.871 12.924-2.193 4.429 0.674 8.525 2.761 11.678 5.948l81.655 81.579c3.191 3.149 5.278 7.236 5.956 11.665s-0.094 8.956-2.197 12.911l-56.717 105.813c13.577 24.823 24.461 51.029 32.461 78.165l115.14 34.129c4.241 1.31 7.949 3.934 10.594 7.497 2.641 3.558 4.079 7.872 4.1 12.301v116.395c0.201 4.245-0.905 8.452-3.162 12.049-2.261 3.601-5.568 6.426-9.481 8.090zM513.527 260.267c-37.167 0-73.502 11.008-104.403 31.637-30.903 20.629-54.988 49.946-69.212 84.25s-17.944 72.051-10.694 108.467c7.251 36.416 25.148 69.868 51.429 96.123s59.765 44.135 96.215 51.378c36.454 7.244 74.236 3.526 108.574-10.683s63.689-38.271 84.335-69.144c20.651-30.871 31.671-67.167 31.671-104.3 0-49.788-19.802-97.54-55.040-132.745-35.243-35.209-83.038-54.985-132.877-54.985z" />
<glyph unicode="&#xe917;" glyph-name="Home" horiz-adv-x="1109" d="M1086.37 456.389l-504.026 492.397c-3.629 3.555-7.939 6.375-12.685 8.3s-9.833 2.915-14.97 2.915c-5.138 0-10.225-0.99-14.97-2.915s-9.056-4.745-12.685-8.3l-504.030-492.397c-14.684-14.355-23.005-33.855-23.005-54.192 0-42.23 35.119-76.563 78.315-76.563h53.107v-351.354c0-21.171 17.498-38.281 39.158-38.281h305.795v267.971h137.050v-267.971h325.378c21.658 0 39.151 17.109 39.151 38.281v351.354h53.111c20.804 0 40.747 8.015 55.433 22.49 30.464 29.907 30.464 78.357-0.128 108.264z" />
<glyph unicode="&#xe918;" glyph-name="lock" d="M768 533.333v170.667c0 141.355-114.645 256-256 256s-256-114.645-256-256v-170.667h-128v-597.333h768v597.333h-128zM554.667 203.819v-97.152h-85.333v97.152c-25.387 14.805-42.667 41.984-42.667 73.515 0 47.104 38.229 85.333 85.333 85.333s85.333-38.229 85.333-85.333c0-31.488-17.237-58.709-42.667-73.515zM341.333 533.333v170.667c0 94.123 76.544 170.667 170.667 170.667 94.080 0 170.667-76.544 170.667-170.667v-170.667h-341.333z" />
<glyph unicode="&#xe919;" glyph-name="euro" d="M924.689 79.871c-7.016 0-13.961-1.872-20.057-5.408-65.563-38.066-140.391-58.411-216.37-58.411-183.809 0-346.040 119.734-407.147 287.741h370.497c22.073 0 40.026 17.937 40.026 40.002 0 22.081-17.953 40.002-40.026 40.002h-390.434c-3.192 24.001-4.824 42.938-4.824 64.011 0 21.065 1.624 39.994 4.824 63.995h390.426c22.073 0 40.026 17.937 40.026 40.002 0 22.081-17.953 40.002-40.026 40.002h-370.497c61.115 176.008 223.346 288.15 407.155 288.15 75.98 0 150.807-20.057 216.386-58.107 6.080-3.528 13.025-5.376 20.041-5.376 14.225 0 27.513 7.664 34.658 19.961 11.073 19.081 4.552 43.634-14.537 54.731-77.78 45.114-166.48 68.835-256.54 68.835-226.427-0.008-427.524-152.183-491.199-368.193h-97.797c-22.057 0-40.018-17.921-40.018-40.002 0-22.065 17.961-40.002 40.018-40.002h81.116c-2.712-24.001-4.072-42.994-4.072-63.995 0-21.009 1.36-40.010 4.072-64.011h-81.116c-22.057 0-40.018-17.921-40.018-40.002 0-22.065 17.961-40.002 40.018-40.002h97.797c63.675-216.010 264.78-367.793 491.191-367.793 90.068 0 178.768 23.961 256.54 69.107 19.097 11.081 25.609 35.666 14.521 54.755-7.12 12.305-20.409 20.009-34.634 20.009z" />
<glyph unicode="&#xe91a;" glyph-name="cm" d="M401.203 205.722c-23.757-12.288-73.626-24.576-136.499-24.576-145.613 0-254.566 91.955-254.566 262.144 0 162.509 109.67 271.36 269.824 271.36 63.59 0 105.062-13.824 122.675-23.040l-16.896-54.477c-24.576 12.288-60.518 21.504-103.526 21.504-121.139 0-201.626-77.414-201.626-213.094 0-127.283 72.806-207.77 197.837-207.77 41.37 0 82.842 8.397 109.67 21.504l13.107-53.555zM483.226 460.288c0 39.117-1.536 69.734-3.072 100.454h58.982l3.072-59.802h2.253c20.685 35.226 55.194 68.198 117.248 68.198 49.869 0 88.166-30.618 104.243-74.342h1.536c11.469 21.504 26.829 36.762 42.189 48.333 22.221 16.896 45.978 26.112 81.306 26.112 49.869 0 122.675-32.154 122.675-160.973v-218.522h-65.946v209.92c0 72.090-26.829 114.278-80.486 114.278-39.117 0-68.198-28.365-80.486-60.518-3.072-9.933-5.325-22.221-5.325-33.69v-229.99h-65.946v222.208c0 59.802-26.112 101.99-77.414 101.99-41.37 0-72.806-33.69-83.558-67.482-3.789-9.933-5.325-21.504-5.325-32.973v-223.846h-65.946v270.643z" />
<glyph unicode="&#xe91b;" glyph-name="Logout" d="M115.81-64h438.857c19.393 0.017 37.986 7.731 51.698 21.444s21.425 32.307 21.444 51.695v109.718h-73.143v-109.718h-438.857v877.718h438.857v-109.715h73.143v109.715c-0.019 19.393-7.731 37.986-21.444 51.698s-32.305 21.425-51.698 21.444h-438.857c-19.393-0.019-37.986-7.732-51.698-21.444s-21.425-32.306-21.444-51.698v-877.718c0.019-19.388 7.732-37.982 21.444-51.695s32.306-21.427 51.698-21.444zM649.239 280.283l131.145 131.145h-518.291v73.143h518.291l-131.145 131.145 51.712 51.712 219.429-219.429-219.429-219.429-51.712 51.712z" />
<glyph unicode="&#xe91c;" glyph-name="user" d="M512 509.87c124.103 0 225.068 100.962 225.068 225.065s-100.965 225.065-225.068 225.065-225.068-100.962-225.068-225.065 100.965-225.065 225.068-225.065zM512 852.399c64.772 0 117.468-52.692 117.468-117.464s-52.696-117.464-117.468-117.464-117.468 52.692-117.468 117.464 52.696 117.464 117.468 117.464zM512 402.27c-227.436 0-412.469-185.034-412.469-412.469 0-29.712 24.088-53.8 53.8-53.8h717.338c29.712 0 53.8 24.088 53.8 53.8 0 227.436-185.034 412.469-412.469 412.469zM211.884 43.601c25.487 142.531 150.365 251.068 300.116 251.068s274.629-108.537 300.116-251.068h-600.233z" />
<glyph unicode="&#xe91d;" glyph-name="officeBuilding" d="M641.11 490.666h85.334c11.776 0 21.334 9.558 21.334 21.334v85.334c0 11.776-9.558 21.334-21.334 21.334h-85.334c-11.776 0-21.334-9.558-21.334-21.334v-85.334c0-11.776 9.558-21.334 21.334-21.334zM705.11 576v-42.666h-42.666v42.666h42.666zM299.776 149.334h85.334c11.776 0 21.334 9.558 21.334 21.334v85.332c0 11.776-9.558 21.334-21.334 21.334h-85.334c-11.776 0-21.334-9.558-21.334-21.334v-85.334c0-11.776 9.558-21.332 21.334-21.332zM321.11 234.666h42.666v-42.666h-42.666v42.666zM299.776 661.334h85.334c11.776 0 21.334 9.558 21.334 21.334v85.332c0 11.776-9.558 21.334-21.334 21.334h-85.334c-11.776 0-21.334-9.558-21.334-21.334v-85.334c0-11.776 9.558-21.332 21.334-21.332zM321.11 746.666h42.666v-42.666h-42.666v42.666zM894.89-21.334h-61.782v874.668c0 11.776-9.558 21.334-21.334 21.334h-64v64c0.002 11.774-9.556 21.332-21.332 21.332h-426.666c-11.776 0-21.334-9.558-21.334-21.334v-64h-64c-11.776 0-21.334-9.558-21.334-21.334v-874.666h-64c-11.776 0-21.334-9.558-21.334-21.334s9.558-21.334 21.334-21.334h256c11.776 0 21.334 9.558 21.334 21.334v106.668h213.334v-106.666c0-11.776 9.558-21.334 21.334-21.334h253.782c11.776 0 21.334 9.558 21.334 21.334-0.002 11.776-9.56 21.332-21.336 21.332zM321.11 917.334h384v-42.666h-384v42.666zM790.442-21.334h-128v106.666c0 11.776-9.558 21.334-21.334 21.334h-256c-11.776 0-21.334-9.558-21.334-21.334v-106.666h-128v853.334h554.666v-853.334zM470.442 149.334h85.334c11.776 0 21.334 9.558 21.334 21.334v85.332c0 11.776-9.558 21.334-21.334 21.334h-85.334c-11.776 0-21.334-9.558-21.334-21.334v-85.334c0.002-11.776 9.558-21.332 21.334-21.332zM491.776 234.666h42.666v-42.666h-42.666v42.666zM641.11 661.334h85.334c11.776 0 21.334 9.558 21.334 21.334v85.332c0 11.776-9.558 21.334-21.334 21.334h-85.334c-11.776 0-21.334-9.558-21.334-21.334v-85.334c0-11.776 9.558-21.332 21.334-21.332zM705.11 746.666v-42.666h-42.666v42.666h42.666zM299.776 490.666h85.334c11.776 0 21.334 9.558 21.334 21.334v85.334c0 11.776-9.558 21.334-21.334 21.334h-85.334c-11.776 0-21.334-9.558-21.334-21.334v-85.334c0-11.776 9.558-21.334 21.334-21.334zM321.11 576h42.666v-42.666h-42.666v42.666zM470.442 320h85.334c11.776 0 21.334 9.558 21.334 21.334v85.334c0 11.776-9.558 21.334-21.334 21.334h-85.334c-11.776 0-21.334-9.558-21.334-21.334v-85.334c0.002-11.776 9.558-21.334 21.334-21.334zM491.776 405.334h42.666v-42.666h-42.666v42.666zM470.442 661.334h85.334c11.776 0 21.334 9.558 21.334 21.334v85.332c0 11.776-9.558 21.334-21.334 21.334h-85.334c-11.776 0-21.334-9.558-21.334-21.334v-85.334c0.002-11.776 9.558-21.332 21.334-21.332zM491.776 746.666h42.666v-42.666h-42.666v42.666zM470.442 490.666h85.334c11.776 0 21.334 9.558 21.334 21.334v85.334c0 11.776-9.558 21.334-21.334 21.334h-85.334c-11.776 0-21.334-9.558-21.334-21.334v-85.334c0.002-11.776 9.558-21.334 21.334-21.334zM491.776 576h42.666v-42.666h-42.666v42.666zM641.11 149.334h85.334c11.776 0 21.334 9.558 21.334 21.334v85.332c0 11.776-9.558 21.334-21.334 21.334h-85.334c-11.776 0-21.334-9.558-21.334-21.334v-85.334c0-11.776 9.558-21.332 21.334-21.332zM705.11 234.666v-42.666h-42.666v42.666h42.666zM299.776 320h85.334c11.776 0 21.334 9.558 21.334 21.334v85.334c0 11.776-9.558 21.334-21.334 21.334h-85.334c-11.776 0-21.334-9.558-21.334-21.334v-85.334c0-11.776 9.558-21.334 21.334-21.334zM321.11 405.334h42.666v-42.666h-42.666v42.666zM641.11 320h85.334c11.776 0 21.334 9.558 21.334 21.334v85.334c0 11.776-9.558 21.334-21.334 21.334h-85.334c-11.776 0-21.334-9.558-21.334-21.334v-85.334c0-11.776 9.558-21.334 21.334-21.334zM705.11 405.334v-42.666h-42.666v42.666h42.666z" />
<glyph unicode="&#xe91e;" glyph-name="percent" d="M7.896-18.001l970.105 970.105 38.104-38.104-970.105-970.105-38.104 38.104zM161.684 636.632c89.169 0 161.684 72.515 161.684 161.684s-72.515 161.684-161.684 161.684-161.684-72.515-161.684-161.684 72.515-161.684 161.684-161.684zM161.684 906.105c59.446 0 107.789-48.344 107.789-107.789s-48.344-107.789-107.789-107.789-107.789 48.344-107.789 107.789 48.344 107.789 107.789 107.789zM862.316 259.368c-89.169 0-161.684-72.515-161.684-161.684s72.515-161.684 161.684-161.684 161.684 72.515 161.684 161.684-72.515 161.684-161.684 161.684zM862.316-10.105c-59.446 0-107.789 48.344-107.789 107.789s48.344 107.789 107.789 107.789 107.789-48.344 107.789-107.789-48.344-107.789-107.789-107.789z" />
<glyph unicode="&#xe91f;" glyph-name="creditCard" d="M884.562 784.488h-745.123c-76.88 0-139.438-56.895-139.438-126.827v-419.328c0-69.921 62.543-126.816 139.438-126.816h745.123c76.88 0 139.438 56.895 139.438 126.816v419.328c0 69.931-62.558 126.827-139.438 126.827zM945.368 238.328c0.005-26.562-27.275-48.195-60.807-48.195h-745.123c-33.532 0-60.812 21.623-60.812 48.195v275.477h866.742v-275.477zM945.373 592.422h-866.737v65.24c0 26.572 27.265 48.205 60.802 48.205h745.123c33.532 0 60.812-21.623 60.812-48.21v-65.235zM150.009 369.381h144.14v-78.621h-144.14v78.621zM317.477 369.381h144.14v-78.621h-144.14v78.621z" />
<glyph unicode="&#xe920;" glyph-name="photograpg" d="M384.128 608c0-53.019-42.981-96-96-96s-96 42.981-96 96v0c0 53.019 42.981 96 96 96s96-42.981 96-96v0zM96 832c-53.019 0-96-42.981-96-96v0-576c0-53.019 42.981-96 96-96v0h832c53.019 0 96 42.981 96 96v0 576c0 53.019-42.981 96-96 96v0h-832zM928 768c17.673 0 32-14.327 32-32v0-384l-241.6 124.608c-4.175 2.137-9.107 3.389-14.332 3.389-8.821 0-16.808-3.569-22.597-9.342l-237.439-237.439-170.24 113.408c-4.984 3.36-11.125 5.363-17.734 5.363-8.816 0-16.799-3.565-22.587-9.332l0.001 0.001-169.344-150.656v-34.56c-0.072 0.753-0.118 1.643-0.128 2.542v576.018c0 17.673 14.327 32 32 32v0h832z" />
<glyph unicode="&#xe921;" glyph-name="discount" d="M1011.278 313.496c-4.432 13.822-17.284 23.2-31.8 23.2h-100.174v589.912c0 18.44-14.95 33.392-33.392 33.392h-667.824c-18.44 0-33.392-14.95-33.392-33.392v-589.912h-100.174c-14.516 0-27.368-9.378-31.8-23.2-4.43-13.822 0.578-28.926 12.39-37.362l467.48-333.914c5.806-4.148 12.608-6.22 19.41-6.22 6.8 0 13.604 2.072 19.41 6.22l467.478 333.912c11.81 8.438 16.816 23.54 12.388 37.364zM512 10.428l-363.282 259.486h29.368c18.44 0 33.392 14.95 33.392 33.392v589.912h601.044v-589.914c0-18.44 14.95-33.392 33.392-33.392h29.368l-363.282-259.484zM378.436 848.696c-55.236 0-100.174-44.938-100.174-100.174s44.938-100.174 100.174-100.174c55.236 0 100.174 44.938 100.174 100.174s-44.938 100.174-100.174 100.174zM378.436 715.13c-18.412 0-33.392 14.98-33.392 33.392s14.98 33.392 33.392 33.392 33.392-14.98 33.392-33.392-14.98-33.392-33.392-33.392zM645.566 581.566c-55.236 0-100.174-44.938-100.174-100.174s44.938-100.174 100.174-100.174 100.174 44.938 100.174 100.174c0 55.236-44.938 100.174-100.174 100.174zM645.566 448c-18.412 0-33.392 14.98-33.392 33.392s14.98 33.392 33.392 33.392c18.412 0 33.392-14.98 33.392-33.392s-14.98-33.392-33.392-33.392zM677.27 780.214c-13.038 13.040-34.182 13.040-47.222 0l-283.334-283.334c-13.040-13.040-13.040-34.182 0-47.222 6.52-6.52 15.066-9.782 23.61-9.782s17.092 3.26 23.61 9.782l283.334 283.334c13.042 13.040 13.042 34.182 0.002 47.222z" />
<glyph unicode="&#xe922;" glyph-name="trashCan2" horiz-adv-x="931" d="M892.121 775.68h-155.151v102.4c0 45.184-34.788 81.92-77.576 81.92h-387.878c-42.788 0-77.576-36.736-77.576-81.92v-102.4h-155.151c-21.455 0-38.788-18.304-38.788-40.96v-40.96c0-5.632 4.364-10.24 9.697-10.24h73.212l29.939-669.445c1.939-43.641 36.121-78.075 77.454-78.075h550.303c41.454 0 75.515 34.304 77.454 78.075l29.939 669.445h73.212c5.333 0 9.697 4.608 9.697 10.24v40.96c0 22.656-17.334 40.96-38.788 40.96zM649.697 775.68h-368.485v92.16h368.485v-92.16z" />
<glyph unicode="&#xe923;" glyph-name="trashCan" d="M766.484-57.226h-510.116c-34.192 0-62.022 27.83-62.022 62.022v685.64c0 12.409 10.071 22.48 22.48 22.48h589.201c12.409 0 22.48-10.071 22.48-22.48v-685.64c0-34.192-27.83-62.022-62.022-62.022zM239.306 667.956v-663.16c0-9.408 7.654-17.062 17.062-17.062h510.127c9.408 0 17.062 7.654 17.062 17.062v663.16h-544.252zM828.349 667.956h-633.846c-34.192 0-62.022 27.819-62.022 62.022v48.725c0 34.192 27.819 62.022 62.022 62.022h633.857c34.192 0 62.022-27.819 62.022-62.022v-48.725c-0.011-34.203-27.841-62.022-62.034-62.022zM194.503 795.755c-9.408 0-17.062-7.654-17.062-17.062v-48.725c0-9.408 7.654-17.062 17.062-17.062h633.857c9.408 0 17.062 7.654 17.062 17.062v48.725c0 9.408-7.654 17.062-17.062 17.062h-633.857zM648.521 795.755h-274.189c-12.409 0-22.48 10.071-22.48 22.48v74.117c0 34.192 27.819 62.022 62.022 62.022h195.104c34.203 0 62.034-27.83 62.034-62.022v-74.117c-0.011-12.409-10.071-22.48-22.491-22.48zM396.812 840.715h229.24v51.637c-0.011 9.408-7.666 17.062-17.074 17.062h-195.104c-9.408 0-17.062-7.654-17.062-17.062v-51.637zM511.426 70.64c-12.409 0-22.48 10.071-22.48 22.48v469.472c0 12.409 10.071 22.48 22.48 22.48s22.48-10.071 22.48-22.48v-469.472c0-12.42-10.071-22.48-22.48-22.48zM660.042 70.64c-12.409 0-22.48 10.071-22.48 22.48v469.472c0 12.409 10.071 22.48 22.48 22.48s22.48-10.071 22.48-22.48v-469.472c0-12.42-10.071-22.48-22.48-22.48zM362.822 70.64c-12.409 0-22.48 10.071-22.48 22.48v469.472c0 12.409 10.071 22.48 22.48 22.48s22.48-10.071 22.48-22.48v-469.472c0-12.42-10.071-22.48-22.48-22.48z" />
<glyph unicode="&#xe924;" glyph-name="b145ab5-b41d-48dc-90b0-82964e89e26f" d="M975.3 498.56h-58.82v105.64c-0.057 25.382-20.618 45.943-45.995 46h-55.125v40.72l-8.34 8.34s0 0 0 0l-254.34 254.34h-411.46v-185.38h-88.78c-25.382-0.057-45.943-20.618-46-45.995v-736.325h0.1c-0.002-0.143-0.003-0.311-0.003-0.48 0-23.759 19.261-43.020 43.020-43.020 0.022 0 0.044 0 0.066 0h754.377c19.48 0 36.64 13.12 41.3 30.56l172.3 472.52v2.98c0 29.040-17.8 50.1-42.3 50.1zM870.44 616.56c6.811-0.011 12.329-5.529 12.34-12.339v-105.641h-67.42v118zM562.56 896l195.26-195.24h-195.26zM174.94 919.9h354v-252.8h252.8v-168.54h-560.78c-2.517-0.003-4.981-0.222-7.378-0.637l0.258 0.037c-16.42-2.74-30.1-14.7-34.18-30l-4.74-13.020v464.96zM40.1 722.18c0.011 6.811 5.529 12.329 12.339 12.34h88.781v-371.38l-101.12-275.78zM813.16-16.86c-1.136-4.076-4.814-7.017-9.18-7.020h-754.36c-0.053-0.001-0.116-0.002-0.179-0.002-3.033 0-5.727 1.452-7.424 3.698l-0.017 0.023c-1.286 1.56-2.066 3.58-2.066 5.781 0 0.387 0.024 0.769 0.071 1.144l-0.005-0.045 171.76 471.18c1.142 4.072 4.816 7.010 9.179 7.020h754.361c6.4 0 8-9.2 8.46-13.8zM804-64h-754.36c-0.054 0-0.117 0-0.181 0-15.962 0-30.151 7.592-39.152 19.362l-0.087 0.119c-5.155 6.655-8.652 14.838-9.737 23.766l-0.023 0.234h-0.36l-0.1 6.42v736.28c0.046 28.939 23.499 52.386 52.437 52.42h82.403v185.4h420.5l266.42-266.42v-36.94h48.68c28.948-0.034 52.406-23.492 52.44-52.437v-99.243h52.42c28.22 0 48.7-23.76 48.7-56.48v-4.12l-172.72-473.6c-5.28-19.92-25.28-34.76-47.28-34.76zM12.8-7.7v0-6.46c-0.001-0.119-0.002-0.26-0.002-0.401 0-20.236 16.404-36.64 36.64-36.64 0.071 0 0.142 0 0.213 0.001h754.349c16.34 0 31.12 10.86 35.12 25.82l172.12 472v1.84c0 25.32-15.1 43.68-36 43.68h-65.24v112c-0.034 21.879-17.761 39.606-39.637 39.64h-61.403v44.5l-4.6 4.6h-3.74v3.78l-250.62 250.54h-402.38v-185.4h-95.18c-21.876-0.023-39.606-17.745-39.64-39.617v-0.003zM804-30.3h-754.36c-0.016 0-0.036 0-0.055 0-5.137 0-9.699 2.457-12.576 6.261l-0.029 0.040c-1.080 1.42-4.58 6.56-3.2 12.26l0.2 0.68 113.64 311.6 58 159.3c1.959 6.694 8.043 11.5 15.249 11.5 0.011 0 0.022 0 0.033 0h754.398c4 0 13.22-2 14.84-19.62l0.14-1.42-0.5-1.34-170.6-468c-1.994-6.565-7.993-11.26-15.089-11.26-0.032 0-0.064 0-0.096 0h0.005zM46.26-14.8c0.12-0.14 0.44-0.88 0.9-1.46 0.535-0.755 1.405-1.241 2.389-1.241 0.032 0 0.064 0.001 0.095 0.002h754.355c1.427 0.005 2.628 0.967 2.995 2.278l0.005 0.022 170.26 467.040c-0.56 4.22-1.7 6.34-2.22 6.72l-754.080-0.1c-1.436-0.012-2.642-0.98-3.015-2.298l-0.005-0.022-0.52-1.64-82.58-226.5zM33.7 51.34v670.84c0.023 10.337 8.402 18.709 18.739 18.72h95.181v-378.9l-0.4-1.060zM52.44 728.12c-3.314 0-6-2.686-6-6v0-598.8l88.4 240.96v363.82zM168.44 418.72v507.58h366.8v-252.8h252.76v-181.34h-567.040c-2.122-0.005-4.199-0.186-6.22-0.531l0.22 0.031c-14-2.32-25.62-12.5-29.040-25.3zM181.24 913.5v-428c7.638 9.725 18.604 16.535 31.158 18.717l0.302 0.043c2.452 0.431 5.276 0.678 8.158 0.68h554.402v155.76h-252.8v252.8zM889.16 492.16h-80.2v130.78h61.48c10.345-0.011 18.729-8.395 18.74-18.739v-0.001zM821.74 504.96h54.62v99.24c0 3.314-2.686 6-6 6v0h-48.6zM773.26 694.4h-217.1v217.080zM568.94 707.2h173.42l-173.4 173.4zM276 667.1h168.54c9.058 0.322 16.279 7.743 16.279 16.85s-7.221 16.528-16.25 16.849l-0.029 0.001h-168.54c-9.058-0.322-16.279-7.743-16.279-16.85s7.221-16.528 16.25-16.849l0.029-0.001zM444.58 660.7h-168.58c-0.203-0.006-0.442-0.010-0.682-0.010-12.846 0-23.26 10.414-23.26 23.26s10.414 23.26 23.26 23.26c0.24 0 0.479-0.004 0.717-0.011l-0.035 0.001h168.54c0.203 0.006 0.442 0.010 0.682 0.010 12.846 0 23.26-10.414 23.26-23.26s-10.414-23.26-23.26-23.26c-0.24 0-0.479 0.004-0.717 0.011l0.035-0.001zM276 694.4c-5.777 0-10.46-4.683-10.46-10.46s4.683-10.46 10.46-10.46v0h168.54c5.777 0 10.46 4.683 10.46 10.46s-4.683 10.46-10.46 10.46v0zM276 785.060h168.54c9.058 0.322 16.279 7.743 16.279 16.85s-7.221 16.528-16.25 16.849l-0.029 0.001h-168.54c-9.058-0.322-16.279-7.743-16.279-16.85s7.221-16.528 16.25-16.849l0.029-0.001zM444.58 778.66h-168.58c-0.203-0.006-0.442-0.010-0.682-0.010-12.846 0-23.26 10.414-23.26 23.26s10.414 23.26 23.26 23.26c0.24 0 0.479-0.004 0.717-0.011l-0.035 0.001h168.54c0.203 0.006 0.442 0.010 0.682 0.010 12.846 0 23.26-10.414 23.26-23.26s-10.414-23.26-23.26-23.26c-0.24 0-0.479 0.004-0.717 0.011l0.035-0.001zM276 812.38c-5.777 0-10.46-4.683-10.46-10.46s4.683-10.46 10.46-10.46v0h168.54c5.777 0 10.46 4.683 10.46 10.46s-4.683 10.46-10.46 10.46v0zM276 549.12h404.54c0.173-0.006 0.376-0.010 0.581-0.010 9.312 0 16.86 7.548 16.86 16.86s-7.548 16.86-16.86 16.86c-0.204 0-0.407-0.004-0.61-0.011l0.029 0.001h-404.54c-9.058-0.322-16.279-7.743-16.279-16.85s7.221-16.528 16.25-16.849l0.029-0.001zM680.54 542.72h-404.54c-12.549 0.38-22.578 10.644-22.578 23.25s10.029 22.87 22.543 23.249l0.035 0.001h404.54c12.549-0.38 22.578-10.644 22.578-23.25s-10.029-22.87-22.543-23.249l-0.035-0.001zM276 576.44c-5.777 0-10.46-4.683-10.46-10.46s4.683-10.46 10.46-10.46v0h404.54c5.777 0 10.46 4.683 10.46 10.46s-4.683 10.46-10.46 10.46v0z" />
<glyph unicode="&#xe925;" glyph-name="play" horiz-adv-x="1170" d="M68.388-40.337c24.614-15.187 53.264-23.395 82.599-23.663 21.141 0.047 42.029 4.368 61.283 12.677l867.733 368.481c26.824 11.091 49.66 29.398 65.698 52.67s24.583 50.496 24.583 78.327c0 27.831-8.545 55.055-24.583 78.327s-38.874 41.579-65.698 52.67l-867.733 368.481c-22.962 9.704-48.108 13.802-73.154 11.922s-49.206-9.677-70.286-22.686c-21.080-13.009-38.415-30.818-50.434-51.813s-18.342-44.512-18.397-68.42v-736.963c0.045-23.831 6.319-47.278 18.258-68.228s29.166-38.744 50.131-51.782zM124.343 816.636c-0.028 4.245 1.104 8.424 3.283 12.128s5.333 6.806 9.151 9.001c4.65 1.224 9.562 1.224 14.21 0 3.508 0.761 7.15 0.761 10.658 0l867.733-367.636c4.896-1.905 9.057-5.198 11.916-9.433 2.86-4.234 4.282-9.203 4.070-14.231 0.157-4.914-1.3-9.75-4.165-13.839s-6.997-7.228-11.821-8.98l-867.733-368.482c-3.781-2.076-8.069-3.17-12.434-3.17s-8.654 1.094-12.435 3.17c-3.706 2.31-6.772 5.437-8.936 9.115s-3.365 7.8-3.498 12.014v740.342z" />
<glyph unicode="&#xe926;" horiz-adv-x="1243" d="M284.347 729.388c46.603 113.794 163.33 221.434 337.467 221.434 187.352 0 347.028-126.26 382.038-330.581 49.434-7.329 101.189-26.081 143.808-57.437 52.97-38.972 92.61-98.355 92.61-177.648 0-76.88-32.68-138.044-85.884-179.043-52.153-40.188-121.563-59.282-194.353-59.282h-183.605c-21.347 0-38.652 17.139-38.652 38.285 0 21.144 17.306 38.285 38.652 38.285h183.605c60.080 0 111.461 15.852 146.884 43.147 34.37 26.487 56.046 65.344 56.046 118.608 0 50.854-24.379 88.942-61.4 116.18-37.974 27.939-88.304 43.392-133.778 45.623-19.041 0.934-34.551 15.479-36.533 34.258-19.474 184.558-153.395 293.034-309.436 293.034-147.346 0-241.552-96.278-272.421-191.63-4.72-14.583-17.759-24.976-33.152-26.425-133.199-12.533-235.576-93.755-235.576-216.483 0-123.381 107.638-216.313 251.248-216.313h135.287c21.347 0 38.652-17.141 38.652-38.285 0-21.146-17.306-38.285-38.652-38.285h-135.287c-175.283 0-328.555 117.063-328.555 292.882 0 167.21 133.656 267.107 280.989 289.675z" />
<glyph unicode="&#xe927;" horiz-adv-x="1243" d="M604.431 630.519c15.296 14.76 40.097 14.76 55.393 0l156.676-151.177c15.296-14.76 15.296-38.691 0-53.449-15.296-14.76-40.097-14.76-55.393 0l-128.978 124.453-128.98-124.453c-15.296-14.76-40.097-14.76-55.393 0-15.296 14.758-15.296 38.689 0 53.449l156.676 151.177z" />
<glyph unicode="&#xe928;" horiz-adv-x="1243" d="M621.82 600.375c22.769 0 41.229-17.346 41.229-38.746v-582.195c0-21.398-18.459-38.744-41.229-38.744s-41.231 17.346-41.231 38.744v582.195c0 21.4 18.459 38.746 41.231 38.746z" />
<glyph unicode="&#xe929;" glyph-name="iconInfo2" d="M509.594 960c-280.986 0-509.594-229.683-509.594-512s229.683-512 512-512c282.317 0 512 229.683 512 512s-230.758 512-514.406 512zM563.2 192h-102.4v102.4h102.4v-102.4zM563.2 396.8h-102.4v307.2h102.4v-307.2z" />
<glyph unicode="&#xe92a;" glyph-name="folder1" horiz-adv-x="1425" d="M1282.226 817.561h-682.857l-121.598 121.572c-6.606 6.623-14.456 11.876-23.099 15.457s-17.908 5.42-27.264 5.41h-284.939c-78.572 0-142.47-63.884-142.47-142.439v-739.121c0-78.559 63.898-142.439 142.47-142.439h1139.757c78.572 0 142.47 63.88 142.47 142.439v596.682c0 78.555-63.898 142.439-142.47 142.439z" />
<glyph unicode="&#xe92b;" glyph-name="images1" horiz-adv-x="1331" d="M1101.384 887.241c19.292 0 37.796-7.666 51.446-21.311 13.64-13.645 21.309-32.151 21.309-51.449v-727.592c0-19.297-7.67-37.804-21.309-51.449-13.65-13.645-32.154-21.31-51.446-21.31h-873.116c-19.296 0-37.803 7.666-51.448 21.31s-21.311 32.152-21.311 51.449v727.592c0 19.297 7.667 37.804 21.311 51.449s32.152 21.311 51.448 21.311h873.116zM228.268 960c-38.594 0-75.607-15.331-102.897-42.621s-42.621-64.304-42.621-102.897v-727.592c0-38.595 15.331-75.607 42.621-102.898 27.29-27.29 64.303-42.621 102.897-42.621h873.116c19.108 0 38.031 3.764 55.685 11.077s33.7 18.032 47.206 31.544c13.517 13.513 24.228 29.555 31.549 47.209 7.311 17.656 11.069 36.578 11.069 55.688v727.592c0 38.594-15.329 75.607-42.619 102.897s-64.297 42.621-102.892 42.621h-873.116zM857.348 476.43c5.404 5.389 12.365 8.942 19.899 10.156s15.26 0.029 22.083-3.389l274.809-141.662v-327.417h-1018.626v145.519l192.52 171.275c5.947 5.926 13.761 9.611 22.114 10.434 8.355 0.822 16.736-1.27 23.724-5.922l193.54-129.002 269.937 270.009zM410.189 523.472c14.332 0 28.525 2.823 41.766 8.308s25.272 13.524 35.407 23.658 18.174 22.167 23.658 35.408c5.485 13.241 8.308 27.433 8.308 41.765s-2.823 28.525-8.308 41.766-13.524 25.272-23.658 35.407c-10.135 10.135-22.166 18.174-35.407 23.658s-27.434 8.308-41.766 8.308c-28.945 0-56.705-11.498-77.173-31.966s-31.966-48.227-31.966-77.173 11.498-56.705 31.966-77.173c20.468-20.468 48.227-31.966 77.173-31.966z" />
<glyph unicode="&#xe92c;" glyph-name="buildings" d="M288 800v-864h144v176c0 8.848 7.152 16 16 16h128c8.848 0 16-7.152 16-16v-176h144v960c0 35.376-28.624 64-64 64h-320c-35.376 0-64-28.624-64-64v-96zM544 816c0 8.848 7.152 16 16 16h64c8.848 0 16-7.152 16-16v-64c0-8.848-7.152-16-16-16h-64c-8.848 0-16 7.152-16 16v64zM544 656c0 8.848 7.152 16 16 16h64c8.848 0 16-7.152 16-16v-64c0-8.848-7.152-16-16-16h-64c-8.848 0-16 7.152-16 16v64zM544 496c0 8.848 7.152 16 16 16h64c8.848 0 16-7.152 16-16v-64c0-8.848-7.152-16-16-16h-64c-8.848 0-16 7.152-16 16v64zM544 336c0 8.848 7.152 16 16 16h64c8.848 0 16-7.152 16-16v-64c0-8.848-7.152-16-16-16h-64c-8.848 0-16 7.152-16 16v64zM384 816c0 8.848 7.152 16 16 16h64c8.848 0 16-7.152 16-16v-64c0-8.848-7.152-16-16-16h-64c-8.848 0-16 7.152-16 16v64zM384 656c0 8.848 7.152 16 16 16h64c8.848 0 16-7.152 16-16v-64c0-8.848-7.152-16-16-16h-64c-8.848 0-16 7.152-16 16v64zM384 496c0 8.848 7.152 16 16 16h64c8.848 0 16-7.152 16-16v-64c0-8.848-7.152-16-16-16h-64c-8.848 0-16 7.152-16 16v64zM384 336c0 8.848 7.152 16 16 16h64c8.848 0 16-7.152 16-16v-64c0-8.848-7.152-16-16-16h-64c-8.848 0-16 7.152-16 16v64zM416 480h32v-32h-32v32zM416 320h32v-32h-32v32zM464 96h96v-160h-96v160zM128 160h32v-32h-32v32zM416 800h32v-32h-32v32zM416 640h32v-32h-32v32zM576 640h32v-32h-32v32zM576 800h32v-32h-32v32zM576 480h32v-32h-32v32zM576 320h32v-32h-32v32zM128 320h32v-32h-32v32zM256 800h-192c-35.376 0-64-28.624-64-64v-736c0-35.376 28.624-64 64-64h192v864zM192 112c0-8.848-7.152-16-16-16h-64c-8.848 0-16 7.152-16 16v64c0 8.848 7.152 16 16 16h64c8.848 0 16-7.152 16-16v-64zM192 272c0-8.848-7.152-16-16-16h-64c-8.848 0-16 7.152-16 16v64c0 8.848 7.152 16 16 16h64c8.848 0 16-7.152 16-16v-64zM192 432c0-8.848-7.152-16-16-16h-64c-8.848 0-16 7.152-16 16v64c0 8.848 7.152 16 16 16h64c8.848 0 16-7.152 16-16v-64zM176 576h-64c-8.848 0-16 7.152-16 16v64c0 8.848 7.152 16 16 16h64c8.848 0 16-7.152 16-16v-64c0-8.848-7.152-16-16-16zM864 160h32v-32h-32v32zM864 320h32v-32h-32v32zM864 480h32v-32h-32v32zM960 640h-192v-704h192c35.376 0 64 28.624 64 64v576c0 35.376-28.624 64-64 64zM928 112c0-8.848-7.152-16-16-16h-64c-8.848 0-16 7.152-16 16v64c0 8.848 7.152 16 16 16h64c8.848 0 16-7.152 16-16v-64zM928 272c0-8.848-7.152-16-16-16h-64c-8.848 0-16 7.152-16 16v64c0 8.848 7.152 16 16 16h64c8.848 0 16-7.152 16-16v-64zM928 432c0-8.848-7.152-16-16-16h-64c-8.848 0-16 7.152-16 16v64c0 8.848 7.152 16 16 16h64c8.848 0 16-7.152 16-16v-64zM128 480h32v-32h-32v32zM128 640h32v-32h-32v32z" />
<glyph unicode="&#xe92d;" glyph-name="downArrow" d="M0 703.166l512.001-510.334 511.999 510.334z" />
<glyph unicode="&#xe9ad;" glyph-name="Monitor-gray" horiz-adv-x="1170" d="M1088 923.429h-1005.714c-16.968-0.019-33.236-6.768-45.234-18.766s-18.747-28.266-18.766-45.234v-676.571c0.019-16.969 6.768-33.236 18.766-45.232 11.998-12.003 28.266-18.747 45.234-18.768h370.834l-10.971-54.857h-76.434c-4.849 0-9.501-1.924-12.93-5.354s-5.356-8.082-5.356-12.932v-54.857c0-4.849 1.927-9.501 5.356-12.932s8.081-5.354 12.93-5.354h438.857c4.849 0 9.501 1.924 12.932 5.354s5.354 8.082 5.354 12.932v54.857c0 4.849-1.924 9.501-5.354 12.932s-8.082 5.354-12.932 5.354h-76.434l-10.971 54.857h370.834c16.969 0.022 33.236 6.766 45.232 18.768 12.003 11.995 18.747 28.262 18.768 45.232v676.571c-0.022 16.968-6.766 33.236-18.768 45.234-11.995 11.998-28.262 18.747-45.232 18.766zM786.286 27.429v-18.286h-402.286v18.286h402.286zM479.451 64l10.971 54.857h189.44l10.971-54.857h-211.383zM1115.429 182.857c-0.007-7.27-2.896-14.248-8.038-19.39s-12.12-8.031-19.39-8.038h-1005.714c-7.273 0.007-14.246 2.896-19.388 8.038s-8.034 12.12-8.040 19.39v45.714h1060.571v-45.714zM1115.429 265.143h-1060.571v594.286c0.006 7.273 2.898 14.246 8.040 19.388s12.116 8.035 19.388 8.041h1005.714c7.27-0.006 14.248-2.898 19.39-8.041s8.031-12.115 8.038-19.388v-594.286zM603.429 210.286h-36.571c-4.849 0-9.501-1.924-12.93-5.354s-5.356-8.082-5.356-12.932c0-4.849 1.927-9.501 5.356-12.932s8.081-5.354 12.93-5.354h36.571c4.849 0 9.501 1.924 12.93 5.354s5.356 8.082 5.356 12.932c0 4.849-1.927 9.501-5.356 12.932s-8.081 5.354-12.93 5.354z" />
<glyph unicode="&#xe9ae;" glyph-name="monitor" d="M951.999 864h-879.999c-14.847-0.016-29.082-5.922-39.58-16.42s-16.404-24.733-16.42-39.58v-592.001c0.016-14.845 5.922-29.082 16.42-39.578 10.498-10.499 24.733-16.404 39.58-16.422h324.479l-9.598-48.002h-66.881c-4.243 0-8.313-1.683-11.314-4.683-3-3.004-4.686-7.072-4.686-11.315v-48.002c0-4.243 1.686-8.311 4.686-11.312s7.070-4.687 11.314-4.687h384c4.243 0 8.311 1.686 11.315 4.687 3 3 4.687 7.069 4.687 11.312v48.002c0 4.243-1.686 8.311-4.687 11.315-3.004 3-7.072 4.683-11.315 4.683h-66.881l-9.598 48.002h324.478c14.848 0.017 29.082 5.922 39.581 16.422 10.499 10.496 16.404 24.733 16.418 39.578v592.001c-0.014 14.847-5.919 29.081-16.418 39.58s-24.733 16.404-39.581 16.42zM687.998 80.002v-16.002h-351.998v16.002h351.998zM419.519 111.998l9.602 48.002h165.758l9.602-48.002h-184.962zM976.002 215.999c-0.007-6.362-2.536-12.465-7.038-16.964-4.499-4.499-10.598-7.028-16.964-7.035h-879.999c-6.364 0.007-12.465 2.536-16.965 7.035s-7.030 10.602-7.035 16.964v40.001h928.002v-40.001zM976.002 288h-928.002v520c0.005 6.363 2.535 12.465 7.035 16.965s10.601 7.030 16.965 7.035h879.999c6.366-0.005 12.465-2.535 16.964-7.035 4.502-4.5 7.031-10.601 7.038-16.965v-520zM528.002 239.998h-32.003c-4.243 0-8.311-1.683-11.312-4.683-3-3.004-4.687-7.072-4.687-11.315s1.686-8.311 4.687-11.315c3-3 7.069-4.683 11.312-4.683h32.003c4.243 0 8.311 1.683 11.312 4.683 3 3.004 4.687 7.072 4.687 11.315s-1.686 8.311-4.687 11.315c-3 3-7.069 4.683-11.312 4.683z" />
<glyph unicode="&#xe9af;" glyph-name="rotate" horiz-adv-x="1126" d="M997.637 833.71c81.521-97.188 127.683-220.072 127.683-348.349 0-302.92-252.406-549.361-562.657-549.361-310.254 0-562.662 246.441-562.662 549.361 0 148.845 59.978 288.206 168.885 392.403 25.511 24.408 66.459 23.999 91.457-0.909s24.58-64.883-0.931-89.295c-83.873-80.244-130.063-187.57-130.063-302.199 0-233.283 194.383-423.071 433.315-423.071 238.93 0 432.594 189.788 432.594 423.071 0 91.615-29.819 179.647-85.873 251.658v-50.647c0-34.873-28.954-63.144-64.671-63.144s-64.676 28.272-64.676 63.144v210.458c0 0.008 0 0.017 0 0.017 0 34.881 30.392 63.153 66.109 63.153h215.578c35.717 0 64.676-28.272 64.676-63.145s-28.959-63.145-64.676-63.145h-64.087z" />
<glyph unicode="&#xe9b0;" glyph-name="Settings-1" d="M982.281 537.879l-111.172 33.185c-7.68 26.836-18.254 52.762-31.523 77.321l54.426 101.879c2.039 3.846 2.79 8.247 2.133 12.552-0.666 4.304-2.688 8.282-5.786 11.342l-79.313 79.645c-3.061 3.097-7.038 5.125-11.343 5.782s-8.706-0.090-12.551-2.132l-101.216-54.092c-24.802 13.916-51.067 25.045-78.316 33.185l-33.185 109.843c-1.404 4.048-4.056 7.546-7.574 9.991s-7.722 3.711-12.006 3.615h-112.166c-4.309-0.020-8.5-1.415-11.962-3.981s-6.014-6.171-7.286-10.288l-33.185-109.512c-27.476-8.096-53.967-19.226-78.98-33.184l-99.556 53.76c-3.845 2.042-8.247 2.79-12.551 2.132s-8.282-2.685-11.343-5.782l-80.64-78.649c-3.097-3.060-5.125-7.037-5.782-11.342s0.090-8.706 2.132-12.552l53.76-99.556c-13.936-24.908-25.066-51.286-33.185-78.648l-109.843-33.185c-4.118-1.271-7.722-3.824-10.288-7.286s-3.961-7.653-3.981-11.962v-112.166c0.020-4.309 1.415-8.5 3.981-11.962s6.171-6.014 10.288-7.286l110.506-33.185c8.208-26.906 19.337-52.835 33.185-77.321l-54.424-104.201c-2.042-3.845-2.79-8.247-2.132-12.551s2.685-8.282 5.782-11.343l79.313-79.314c3.060-3.098 7.037-5.12 11.342-5.777 4.304-0.666 8.706 0.085 12.552 2.125l102.542 54.759c24.258-13.089 49.845-23.544 76.326-31.19l33.185-111.838c1.271-4.122 3.824-7.723 7.286-10.291 3.461-2.56 7.652-3.959 11.961-3.977h112.166c4.309 0.017 8.499 1.417 11.961 3.977 3.462 2.569 6.014 6.17 7.286 10.291l33.185 112.162c26.255 7.689 51.618 18.147 75.663 31.198l103.206-55.091c3.846-2.039 8.247-2.79 12.552-2.125 4.304 0.657 8.282 2.679 11.342 5.777l79.316 79.314c3.098 3.061 5.12 7.038 5.777 11.343s-0.085 8.706-2.133 12.551l-55.084 102.874c13.187 24.136 23.759 49.612 31.524 75.994l111.838 33.185c4.113 1.271 7.723 3.825 10.283 7.286 2.569 3.462 3.968 7.653 3.985 11.962v113.161c0.196 4.127-0.879 8.214-3.072 11.714s-5.41 6.245-9.207 7.865zM498.773 279.699c-36.099 0-71.386 10.704-101.402 30.76s-53.409 48.561-67.224 81.911c-13.814 33.351-17.428 70.049-10.386 105.454s24.426 67.927 49.952 93.453c25.526 25.526 58.047 42.909 93.452 49.952s72.104 3.428 105.455-10.387c33.351-13.815 61.856-37.208 81.911-67.223s30.76-65.303 30.76-101.402c0-48.407-19.23-94.832-53.459-129.061s-80.653-53.458-129.060-53.458z" />
<glyph unicode="&#xe9b1;" glyph-name="Settings" horiz-adv-x="597" d="M533.807 492.941l-55.586 16.593c-3.84 13.419-9.126 26.379-15.761 38.659l27.213 50.939c1.020 1.923 1.395 4.124 1.067 6.276-0.333 2.152-1.344 4.141-2.893 5.671l-39.659 39.823c-1.527 1.548-3.516 2.563-5.67 2.891-2.15 0.329-4.352-0.045-6.276-1.066l-50.606-27.046c-12.401 6.958-25.533 12.523-39.158 16.593l-16.593 54.922c-0.702 2.024-2.028 3.773-3.787 4.995s-3.861 1.856-6.003 1.807h-56.083c-2.155-0.010-4.25-0.707-5.981-1.991s-3.007-3.085-3.643-5.144l-16.593-54.756c-13.738-4.048-26.983-9.613-39.49-16.592l-49.778 26.88c-1.923 1.021-4.123 1.395-6.275 1.066s-4.141-1.343-5.671-2.891l-40.32-39.325c-1.548-1.53-2.563-3.519-2.891-5.671s0.045-4.353 1.066-6.276l26.88-49.778c-6.968-12.454-12.533-25.642-16.593-39.325l-54.921-16.593c-2.059-0.636-3.861-1.911-5.144-3.644-1.283-1.728-1.981-3.823-1.991-5.978v-56.085c0.010-2.155 0.707-4.25 1.991-5.978 1.283-1.732 3.085-3.008 5.144-3.644l55.253-16.593c4.104-13.453 9.668-26.419 16.593-38.66l-27.212-52.1c-1.021-1.924-1.395-4.126-1.066-6.276 0.329-2.155 1.343-4.143 2.891-5.67l39.657-39.659c1.53-1.549 3.519-2.56 5.671-2.889 2.152-0.333 4.353 0.043 6.276 1.062l51.271 27.379c12.129-6.545 24.922-11.772 38.163-15.595l16.593-55.919c0.636-2.061 1.912-3.861 3.643-5.146 1.731-1.28 3.826-1.98 5.981-1.988h56.083c2.155 0.009 4.25 0.708 5.981 1.988 1.731 1.284 3.007 3.085 3.643 5.146l16.593 56.081c13.128 3.844 25.809 9.075 37.831 15.599l51.602-27.546c1.924-1.020 4.126-1.395 6.276-1.062 2.15 0.329 4.139 1.34 5.67 2.889l39.659 39.659c1.549 1.527 2.56 3.516 2.889 5.67 0.329 2.15-0.043 4.352-1.067 6.276l-27.541 51.435c6.592 12.070 11.878 24.806 15.761 37.999l55.919 16.593c2.057 0.636 3.861 1.911 5.141 3.639 1.284 1.732 1.984 3.827 1.993 5.982v56.58c0.098 2.065-0.439 4.109-1.536 5.858s-2.705 3.123-4.604 3.934zM292.053 363.849c-18.049 0-35.693 5.355-50.701 15.381s-26.705 24.282-33.612 40.956c-6.907 16.674-8.714 35.025-5.193 52.727s12.213 33.963 24.976 46.724c12.763 12.766 29.024 21.456 46.726 24.977s36.052 1.714 52.727-5.193c16.675-6.907 30.928-18.606 40.956-33.612s15.38-32.653 15.38-50.701c0-24.205-9.615-47.415-26.729-64.529s-40.326-26.731-64.53-26.731z" />
<glyph unicode="&#xe9b2;" glyph-name="voir" d="M289.939 956.982c-22.234-5.898-41.972-22.686-51.281-43.564-3.626-7.716-4.315-19.059-5.219-97.341l-1.13-88.494-88.494-1.13c-84.179-1.13-88.947-1.367-98.697-5.898-16.336-7.716-28.594-19.963-36.762-36.752l-7.49-15.206-0.678-323.329c-0.452-322.877-0.452-323.328 4.315-338.988 4.079-13.612 6.812-17.695 18.833-29.949 12.247-12.029 16.336-14.746 29.95-18.835 15.658-4.765 16.111-4.765 338.987-4.301l323.325 0.676 15.21 7.489c16.787 8.172 29.047 20.425 36.762 36.762 4.54 9.762 4.765 14.52 5.898 98.7l1.133 88.494 88.494 1.126c84.173 1.133 88.945 1.372 98.693 5.898 16.336 7.721 28.597 19.968 36.762 36.755l7.489 15.203 0.683 323.331c0.451 322.876 0.451 323.329-4.308 338.987-4.089 13.614-6.813 17.703-18.835 29.95-12.022 11.795-16.561 14.744-29.498 18.833-15.428 4.767-16.561 4.767-334.669 4.541-245.294-0.010-321.531-0.688-329.473-2.959zM930.017 573.301v-309.717h-619.426v619.431h619.426v-309.714zM233.44 446.915v-202.622l6.575-13.612c7.716-16.111 19.737-28.822 35.396-36.994l11.343-6.124 409.566-1.126v-156.563h-619.433v619.429h156.553v-202.387zM568.127 802.453c-30.854-11.117-34.265-53.325-5.671-70.113 7.49-4.542 12.021-4.768 81.456-5.446l73.516-0.678-122.752-122.976c-84.641-84.867-123.89-125.708-126.387-131.38-4.767-11.795-4.315-22.234 1.819-33.577 9.299-17.467 29.951-24.731 48.783-17.015 5.672 2.497 46.513 41.745 131.381 126.387l122.978 122.75 0.676-73.514c0.676-69.435 0.901-73.966 5.448-81.456 5.441-9.535 16.787-17.467 27.45-19.511 18.159-3.401 38.796 9.987 43.793 28.132 1.591 6.812 2.266 46.060 1.816 131.606l-0.676 121.846-5.222 8.394c-2.949 4.542-9.073 10.665-13.612 13.614l-8.397 5.22-123.658 0.452c-102.563 0.442-125.26-0.010-132.74-2.733z" />
<glyph unicode="&#xe9b3;" glyph-name="rightPageArrow" d="M199.677 839.68l390.827-391.68-390.827-391.68 120.32-120.32 512 512-512 512-120.32-120.32z" />
<glyph unicode="&#xe9b4;" glyph-name="Info" d="M512 152.998c27.614 0 50.001 22.387 50.001 50.001s-22.387 50.001-50.001 50.001c-27.614 0-50.001-22.387-50.001-50.001s22.387-50.001 50.001-50.001zM512 960c-282.968 0-512-228.994-512-512 0-282.97 228.994-512 512-512 282.97 0 512 228.992 512 512 0 282.968-228.992 512-512 512zM512 16c-238.754 0-432 193.216-432 432 0 238.754 193.214 432 432 432 238.754 0 432-193.214 432-432 0-238.754-193.216-432-432-432zM512 703c-88.224 0-160-71.776-160-160 0-22.091 17.908-39.998 40-39.998s40 17.907 40 39.998c0 44.112 35.887 80 80 80s80-35.888 80-80c0-44.111-35.887-79.998-80-79.998-22.093 0-40-17.911-40-40v-100.002c0-22.093 17.907-40 40-40s40 17.907 40 40v65.062c68.932 17.805 120 80.521 120 154.938 0 88.224-71.778 160-160 160z" />
<glyph unicode="&#xe9b5;" glyph-name="users" d="M1023.973 220.901v-96.007c0-34.633-28.101-62.734-62.734-62.734h-33.86c0.053 1.44 0.48 2.773 0.48 4.159v96.007c0 49.59-31.86 92.861-79.263 107.711l-200.438 62.6c39.538 71.612 62.814 161.62 62.814 249.415 0 156.314-82.036 268.051-209.716 295.298 25.221 9.625 53.216 14.957 83.743 14.957 134.932 0 222.060-98.806 222.060-251.734 0-101.072-34.793-209.103-91.981-277.196l264.745-82.729c26.341-8.132 44.151-32.367 44.151-59.748zM833.72 222.207l-264.798 82.676c57.215 68.146 91.954 176.15 91.954 277.222 0 152.928-87.182 251.734-222.060 251.734-134.932 0-222.087-98.806-222.087-251.734 0-101.072 34.793-209.076 92.007-277.222l-264.798-82.676c-26.128-8.185-43.938-32.393-43.938-59.828v-95.98c0-34.659 28.047-62.707 62.68-62.707h752.35c34.633 0 62.707 28.047 62.707 62.707v95.98c0.053 27.381-17.836 51.643-44.017 59.828z" />
<glyph unicode="&#xe9b6;" glyph-name="locked" horiz-adv-x="709" d="M638.031 521.143h-70.892v219.429c0 58.195-22.407 114.008-62.291 155.159s-93.98 64.269-150.385 64.269c-56.405 0-110.501-23.118-150.385-64.269s-62.291-96.964-62.291-155.159v-219.429h-70.892c-18.802 0-36.834-7.706-50.128-21.423s-20.764-32.321-20.764-51.72v-438.855c0-19.401 7.469-38.006 20.764-51.72 13.295-13.722 31.327-21.425 50.128-21.425h567.138c18.801 0 36.833 7.704 50.129 21.425 13.295 13.714 20.764 32.319 20.764 51.72v438.855c0 19.398-7.469 38.003-20.764 51.72s-31.327 21.423-50.129 21.423zM212.677 740.572c0 38.797 14.938 76.005 41.528 103.439s62.653 42.846 100.257 42.846c37.604 0 73.667-15.412 100.257-42.846s41.528-64.642 41.528-103.439v-219.429h-283.569v219.429zM638.031 9.145h-567.138v438.855h567.138v-438.855z" />
<glyph unicode="&#xe9b7;" glyph-name="attach" d="M585.515 164.096l-154.027-153.984c-98.816-98.773-258.688-98.773-357.461 0-47.787 47.701-74.027 111.189-74.027 178.688s26.24 130.987 73.984 178.731l207.616 207.573c100.48 100.48 260.864 96.512 357.419 0 19.328-19.328 34.56-41.515 46.464-65.152l-67.968-67.925c-7.68 26.155-21.333 50.731-41.131 70.485-61.781 61.781-167.68 64.427-232.064 0.043l-0.043-0.085-207.659-207.573c-64-63.957-64-168.149 0-232.107 64.725-64.725 168.875-63.488 232.192 0l103.467 103.424c42.368-12.117 76.416-14.293 113.237-12.117zM592.384 885.931l-152.491-152.576c36.139 2.133 70.613 0 113.195-12.075l102.101 101.931c63.915 64.085 168.107 64 232.107 0.043 64.725-64.768 63.403-168.917 0-232.192l-206.251-206.208c-61.355-61.312-165.803-66.219-232.064 0.085-20.181 20.224-33.493 44.459-40.789 70.101l-3.584-2.901-64.725-64.64c11.947-23.723 27.093-45.867 46.421-65.195 95.787-95.787 256.171-101.291 357.461 0l206.165 206.123c98.731 98.816 98.816 258.645-0.043 357.419-98.859 99.029-258.859 98.688-357.504 0.085z" />
<glyph unicode="&#xe9b8;" glyph-name="admin" d="M470.164 174.51c-11.542 0-20.898-9.356-20.898-20.898v-9.356c0-11.542 9.356-20.898 20.898-20.898 11.54 0 20.898 9.356 20.898 20.898v9.356c0 11.542-9.356 20.898-20.898 20.898zM985.896 333.286l-62.786 51.71c3.16 20.8 4.76 41.936 4.76 63.004s-1.6 42.208-4.762 63.008l62.788 51.712c20.064 16.524 25.19 44.84 12.198 67.32l-85.394 147.902c-9.408 16.346-26.958 26.5-45.806 26.5-6.38 0-12.652-1.146-18.604-3.39l-76.218-28.548c-33.092 26.572-69.696 47.738-109.1 63.080l-13.366 80.164c-4.254 25.64-26.204 44.252-52.198 44.252h-170.816c-25.992 0-47.944-18.614-52.192-44.238l-13.368-80.176c-39.406-15.346-76.014-36.51-109.106-63.084l-76.13 28.514c-5.998 2.276-12.28 3.43-18.676 3.43-18.828 0-36.382-10.148-45.806-26.482l-85.404-147.92c-12.998-22.488-7.87-50.806 12.194-67.328l62.788-51.71c-3.16-20.8-4.76-41.938-4.76-63.006s1.6-42.206 4.76-63.006l-62.788-51.712c-20.064-16.524-25.19-44.84-12.198-67.32l85.406-147.926c9.432-16.342 26.984-26.494 45.808-26.494 6.41 0 12.704 1.162 18.588 3.406l76.214 28.55c33.094-26.574 69.7-47.74 109.102-63.082l13.364-80.15c4.244-25.65 26.198-44.266 52.206-44.266h170.816c25.982 0 47.934 18.608 52.192 44.236l13.366 80.178c39.41 15.346 76.016 36.51 109.108 63.084l76.14-28.522c5.998-2.274 12.282-3.426 18.672-3.426 18.822 0 36.37 10.148 45.8 26.482l85.406 147.924c12.992 22.492 7.864 50.806-12.198 67.33zM597.408-22.204h-106.348v98.854c0 11.542-9.356 20.898-20.898 20.898s-20.898-9.356-20.898-20.898v-98.854h-21.844v229.196c27.212-9.688 56.122-14.75 85.73-14.764 0.006 0 0.132 0 0.14 0 29.704 0 58.65 5.056 85.856 14.752v-229.030h0.002c-0.57-0.088-1.148-0.154-1.74-0.154zM513.284 234.024h-0.114c-117.928 0.058-213.866 96.052-213.864 213.98 0.002 68.628 32.35 131.628 86.316 171.49v-152.458c0-7.342 3.852-14.144 10.146-17.92l106.762-64.054c6.618-3.968 14.886-3.968 21.504 0l106.762 64.054c6.294 3.778 10.146 10.58 10.146 17.92v152.458c53.966-39.862 86.318-102.864 86.314-171.494 0-57.056-22.286-110.764-62.748-151.228-40.464-40.464-94.17-62.748-151.224-62.748zM961.898 286.86l-85.41-147.93c-2.652-4.592-8.244-6.846-13.538-4.84l-87.544 32.794c-7.114 2.662-15.11 1.26-20.888-3.668-33.85-28.856-72.052-51.178-113.58-66.424v129.558c19.17 11.102 37.026 24.772 53.12 40.868 48.358 48.36 74.99 112.562 74.99 180.782 0.002 96.484-53.458 183.662-139.52 227.508-6.478 3.302-14.206 2.996-20.406-0.802-6.198-3.8-9.978-10.548-9.978-17.818v-178.022l-85.864-51.518-85.864 51.518v178.022c0 7.27-3.78 14.018-9.978 17.818-6.198 3.798-13.926 4.1-20.406 0.802-86.060-43.844-139.52-131.020-139.524-227.504-0.002-69.486 27.166-134.308 76.494-182.52 15.716-15.36 33.060-28.46 51.618-39.17v-130.47c-42.516 15.26-81.59 37.916-116.142 67.368-3.844 3.276-8.666 4.994-13.56 4.994-2.464 0-4.946-0.434-7.326-1.328l-87.66-32.838c-1.226-0.468-2.51-0.706-3.81-0.706-3.938 0-7.62 2.142-9.61 5.592l-85.412 147.936c-2.73 4.722-1.644 10.674 2.576 14.152l72.102 59.386c5.852 4.822 8.636 12.432 7.27 19.888-4.060 22.24-6.122 45.018-6.122 67.712 0 22.692 2.060 45.472 6.126 67.708 1.362 7.458-1.418 15.070-7.272 19.888l-72.102 59.382c-4.224 3.48-5.308 9.432-2.574 14.16l85.41 147.932c2.646 4.588 8.218 6.858 13.538 4.838l87.544-32.792c7.11-2.66 15.108-1.26 20.888 3.666 34.834 29.694 74.258 52.488 117.178 67.752 7.152 2.544 12.364 8.764 13.61 16.252l15.358 92.118c0.892 5.388 5.504 9.298 10.964 9.298h170.816c5.46 0 10.072-3.91 10.97-9.312l15.358-92.106c1.248-7.488 6.46-13.712 13.612-16.252 42.918-15.262 82.34-38.054 117.172-67.748 5.78-4.926 13.776-6.33 20.888-3.666l87.588 32.81c1.262 0.476 2.574 0.716 3.9 0.716 3.94 0 7.61-2.128 9.596-5.578l85.412-147.934c2.73-4.722 1.644-10.674-2.576-14.152l-72.104-59.384c-5.852-4.822-8.636-12.43-7.27-19.888 4.060-22.236 6.122-45.018 6.122-67.71s-2.060-45.47-6.126-67.706c-1.362-7.456 1.418-15.070 7.272-19.888l72.102-59.382c4.222-3.476 5.306-9.432 2.572-14.162z" />
<glyph unicode="&#xe9b9;" glyph-name="addURL" d="M299.201 946.802c-22.159-5.878-41.83-22.61-51.108-43.418-3.615-7.69-4.301-18.995-5.202-97.014l-1.126-88.197-88.197-1.126c-83.896-1.126-88.648-1.362-98.365-5.878-16.282-7.69-28.498-19.896-36.639-36.628l-7.465-15.155-0.676-322.243c-0.451-321.79-0.451-322.241 4.301-337.846 4.065-13.57 6.789-17.633 18.77-29.852 12.206-11.989 16.282-14.692 29.85-18.768 15.606-4.751 16.056-4.751 337.848-4.293l322.241 0.676 15.155 7.467c16.732 8.139 28.951 20.357 36.639 36.639 4.526 9.728 4.751 14.467 5.878 98.365l1.126 88.195 88.199 1.126c83.898 1.126 88.65 1.364 98.365 5.878 16.282 7.692 28.496 19.898 36.639 36.631l7.463 15.155 0.68 322.241c0.451 321.792 0.451 322.243-4.293 337.848-4.076 13.568-6.787 17.644-18.768 29.85-11.985 11.756-16.507 14.694-29.401 18.77-15.38 4.751-16.507 4.751-333.55 4.526-244.468-0.010-320.449-0.686-328.364-2.949zM937.132 564.409v-308.675h-617.349v617.35h617.349v-308.675zM242.891 438.448v-201.945l6.554-13.566c7.69-16.056 19.671-28.725 35.277-36.864l11.305-6.103 408.187-1.126v-156.037h-617.349v617.348h156.027v-201.706zM576.451 792.802c-30.753-11.080-34.152-53.146-5.652-69.878 7.463-4.526 11.981-4.751 81.183-5.427l73.265-0.676-122.335-122.563c-84.357-84.581-123.474-125.287-125.964-130.94-4.751-11.756-4.301-22.159 1.815-33.464 9.265-17.408 29.848-24.646 48.62-16.957 5.652 2.49 46.354 41.607 130.937 125.964l122.565 122.336 0.676-73.267c0.676-69.201 0.901-73.719 5.427-81.181 5.427-9.503 16.732-17.408 27.361-19.448 18.092-3.387 38.666 9.953 43.643 28.037 1.585 6.791 2.261 45.907 1.81 131.165l-0.676 121.436-5.202 8.366c-2.937 4.526-9.040 10.629-13.566 13.568l-8.368 5.202-123.249 0.451c-102.216 0.44-124.834-0.010-132.289-2.724z" />
<glyph unicode="&#xe9ba;" glyph-name="document" d="M415.429 498.294c0-16.667 13.509-30.176 30.176-30.176h268.233c16.667 0 30.176 13.509 30.176 30.176s-13.509 30.176-30.176 30.176h-268.233c-16.667 0-30.176-13.509-30.176-30.176zM713.839 364.234h-268.233c-16.667 0-30.176-13.509-30.176-30.176s13.509-30.176 30.176-30.176h268.233c16.667 0 30.176 13.509 30.176 30.176s-13.509 30.176-30.176 30.176zM713.839 199.998h-268.233c-16.667 0-30.176-13.509-30.176-30.176s13.509-30.176 30.176-30.176h268.233c16.667 0 30.176 13.509 30.176 30.176s-13.509 30.176-30.176 30.176zM373.169 498.294c0-17.399-14.105-31.504-31.504-31.504s-31.504 14.105-31.504 31.504c0 17.399 14.105 31.504 31.504 31.504s31.504-14.105 31.504-31.504zM373.169 334.058c0-17.399-14.105-31.504-31.504-31.504s-31.504 14.105-31.504 31.504c0 17.399 14.105 31.504 31.504 31.504s31.504-14.105 31.504-31.504zM373.169 169.822c0-17.399-14.105-31.504-31.504-31.504s-31.504 14.105-31.504 31.504c0 17.399 14.105 31.504 31.504 31.504s31.504-14.105 31.504-31.504zM895.453 723.241l-227.918 227.921c-5.663 5.66-13.338 8.838-21.338 8.838h-496.312c-16.667 0-30.176-13.509-30.176-30.176v-963.648c0-16.667 13.509-30.176 30.176-30.176h724.229c16.667 0 30.176 13.509 30.176 30.176v735.727c0 8.003-3.179 15.678-8.838 21.338zM669.667 863.677l138.304-138.304h-138.304v138.304zM843.938-3.648h-663.877v903.295h429.25v-204.451c0-16.667 13.509-30.176 30.176-30.176h204.451v-668.668z" />
<glyph unicode="&#xe9bb;" glyph-name="channels" d="M1024 192h-768.256v-128l-255.744 192 255.744 192v-128h768.256zM0 576h768v-128l256 192-256 192v-128h-768z" />
<glyph unicode="&#xe9bc;" glyph-name="check-mark-green" d="M918.471 813.741c-15.474 15.531-40.846 15.531-56.32 0l-468.48-468.368-241.266 242.918c-15.474 15.588-40.676 15.588-56.263 0l-84.537-84.48c-15.474-15.417-15.474-40.789 0-56.32l353.678-356.013c15.474-15.417 40.676-15.417 56.32 0l581.348 581.407c15.701 15.531 15.701 40.96 0 56.548l-84.48 84.309z" />
<glyph unicode="&#xe9bd;" glyph-name="reload" d="M234.521 756.938c151.181 136.753 377.431 138.844 530.703 14.010l-121.489-4.6c-15.683-0.627-27.811-13.592-27.183-29.274 0.627-15.265 13.173-27.183 28.229-27.183 0.418 0 0.627 0 1.046 0l186.52 6.9c15.265 0.627 27.183 12.964 27.183 28.229v2.091c0 0.418 0 0.627 0 1.046v0.209l-6.9 184.429c-0.627 15.683-13.801 27.811-29.274 27.183-15.683-0.627-27.811-13.592-27.183-29.274l4.391-115.634c-75.904 62.104-169.373 98.069-269.325 103.088-123.789 6.273-242.768-36.175-334.565-119.398-126.298-114.379-179.829-288.353-139.681-453.962 3.137-12.964 14.637-21.538 27.392-21.538 2.3 0 4.391 0.209 6.691 0.836 15.055 3.764 24.465 19.028 20.701 34.084-35.129 145.536 11.71 298.39 122.743 398.759zM967.009 551.181c-3.764 15.055-19.028 24.465-34.084 20.701s-24.465-19.028-20.701-34.084c35.338-145.536-11.71-298.39-122.743-398.759-77.995-70.468-175.856-105.179-273.298-105.179-93.051 0-185.892 31.575-260.751 93.887l122.953 11.082c15.474 1.464 26.974 15.055 25.511 30.738s-15.055 26.974-30.738 25.511l-185.892-16.728c-15.474-1.464-26.974-15.055-25.511-30.738l16.728-185.892c1.255-14.637 13.592-25.72 28.020-25.72 0.836 0 1.673 0 2.509 0.209 15.474 1.464 26.974 15.055 25.511 30.738l-10.037 113.125c75.904-61.476 168.955-97.233 268.279-102.251 7.946-0.418 15.892-0.627 23.629-0.627 115.216 0 224.786 42.239 310.936 120.025 126.298 114.379 179.829 288.144 139.681 453.962z" />
<glyph unicode="&#xe9be;" glyph-name="discarded" d="M187.52 830.72l-58.24-58.24 324.48-324.48-326.4-327.040 57.6-57.6 327.040 326.4 326.4-326.4 58.24 58.24-326.4 326.4 324.48 324.48-58.24 58.24-324.48-324.48z" />
<glyph unicode="&#xe9bf;" glyph-name="remove" d="M768.073 411.429v73.143q0 14.848-10.825 25.746t-25.746 10.825h-438.857q-14.848 0-25.746-10.825t-10.825-25.746v-73.143q0-14.848 10.825-25.746t25.746-10.825h438.857q14.848 0 25.746 10.825t10.825 25.746zM950.93 448q0-119.442-58.88-220.306t-159.744-159.744-220.306-58.88-220.306 58.88-159.744 159.744-58.88 220.306 58.88 220.306 159.744 159.744 220.306 58.88 220.306-58.88 159.744-159.744 58.88-220.306z" />
<glyph unicode="&#xe9c0;" glyph-name="add" d="M511.945 960c-282.742 0-511.945-229.24-511.945-512.018s229.203-511.982 511.945-511.982c282.888 0 512.055 229.24 512.055 511.982 0 282.778-229.167 512.018-512.055 512.018zM772.751 371.922h-180.865v-184.637h-157.429v184.637h-183.172v157.429h183.136v179.437h157.429v-179.437h180.865v-157.429h0.037z" />
<glyph unicode="&#xe9c1;" glyph-name="cardImage" d="M46.385 721.402c9.442 0 17.096 7.655 17.096 17.096v22.757h832.288v-182.057c0-9.441 7.651-17.095 17.095-17.095s17.095 7.654 17.095 17.095v292.023c0 34.437-28.011 62.448-62.446 62.448h-775.778c-34.435 0-62.446-28.011-62.446-62.448v-132.723c0-9.442 7.655-17.096 17.096-17.096zM91.734 899.476h775.778c15.577 0 28.257-12.677 28.257-28.255v-75.774h-832.288v75.774c0 15.578 12.678 28.255 28.253 28.255zM400.077 67.183h-311.3c-15.578 0-28.253 12.677-28.253 28.254v699.693c0 9.442-7.655 17.096-17.096 17.096s-17.096-7.655-17.096-17.096v-699.693c0-34.436 28.011-62.446 62.446-62.446h311.3c9.441 0 17.095 7.657 17.095 17.098s-7.654 17.095-17.095 17.095zM418.298 276.331v152.564h548.525v-397.066c0-19.468-15.846-35.31-35.313-35.31h-477.898c-19.468 0-35.313 15.843-35.313 35.31v244.502zM931.506 590.339h-477.895c-38.33 0-69.506-31.176-69.506-69.506v-489.004c0-38.33 31.179-69.503 69.506-69.503h477.895c38.33 0 69.506 31.176 69.506 69.503v489.004c0 38.33-31.176 69.506-69.506 69.506zM418.298 463.088v57.745c0 19.471 15.846 35.313 35.313 35.313h477.895c19.468 0 35.313-15.843 35.313-35.313v-57.745h-548.522zM119.053 831.076h10.641c9.442 0 17.096 7.655 17.096 17.096s-7.655 17.096-17.096 17.096h-10.641c-9.442 0-17.096-7.655-17.096-17.096s7.655-17.096 17.096-17.096zM217.613 831.076h10.641c9.442 0 17.096 7.655 17.096 17.096s-7.655 17.096-17.096 17.096h-10.641c-9.442 0-17.096-7.655-17.096-17.096s7.655-17.096 17.096-17.096zM316.179 831.076h10.641c9.441 0 17.095 7.655 17.095 17.096s-7.654 17.096-17.095 17.096h-10.641c-9.444 0-17.098-7.655-17.098-17.096s7.654-17.096 17.098-17.096zM859.464 243.908h-59.67c-1.1 0-2.174-0.102-3.218-0.301-1.042 0.199-2.115 0.301-3.215 0.301h-267.703c-6.574 0-11.925 5.354-11.925 11.925v60.161c0 6.571 5.351 11.925 11.925 11.925h333.806c6.574 0 11.925-5.354 11.925-11.925v-60.161c0-6.571-5.354-11.925-11.925-11.925zM796.575 210.017c1.044-0.196 2.118-0.301 3.218-0.301h59.67c25.43 0 46.118 20.688 46.118 46.118v60.161c0 25.43-20.688 46.118-46.118 46.118h-333.806c-25.43 0-46.118-20.688-46.118-46.118v-60.161c0-25.43 20.685-46.118 46.118-46.118h267.703c1.1 0 2.174 0.105 3.215 0.301zM181.205 644.506h600.853c9.444 0 17.095 7.654 17.095 17.095s-7.651 17.097-17.095 17.097h-600.853c-18.926 0-34.32-15.394-34.32-34.32v-176.716c0-18.926 15.394-34.319 34.32-34.319h202.555c9.441 0 17.098 7.654 17.098 17.095s-7.657 17.095-17.098 17.095h-202.555c-0.068 0-0.128 0.061-0.128 0.129v176.716c0 0.067 0.060 0.129 0.128 0.129zM383.76 379.111h-219.779c-9.442 0-17.096-7.654-17.096-17.095s7.655-17.098 17.096-17.098h219.779c9.441 0 17.098 7.657 17.098 17.098s-7.657 17.095-17.098 17.095zM398.389 272.884h-234.407c-9.442 0-17.096-7.657-17.096-17.098s7.655-17.095 17.096-17.095h234.407c9.441 0 17.098 7.654 17.098 17.095s-7.657 17.098-17.098 17.098zM496.634 87.347h391.853c9.444 0 17.095 7.654 17.095 17.098 0 9.441-7.651 17.095-17.095 17.095h-391.853c-9.441 0-17.095-7.654-17.095-17.095 0-9.444 7.654-17.098 17.095-17.098z" />
<glyph unicode="&#xe9c2;" glyph-name="images" horiz-adv-x="1331" d="M1101.384 887.241c19.292 0 37.796-7.666 51.446-21.311 13.64-13.645 21.309-32.151 21.309-51.449v-727.592c0-19.297-7.67-37.804-21.309-51.449-13.65-13.645-32.154-21.31-51.446-21.31h-873.116c-19.296 0-37.803 7.666-51.448 21.31s-21.311 32.152-21.311 51.449v727.592c0 19.297 7.667 37.804 21.311 51.449s32.152 21.311 51.448 21.311h873.116zM228.268 960c-38.594 0-75.607-15.331-102.897-42.621s-42.621-64.304-42.621-102.897v-727.592c0-38.595 15.331-75.607 42.621-102.898 27.29-27.29 64.303-42.621 102.897-42.621h873.116c19.108 0 38.031 3.764 55.685 11.077s33.7 18.032 47.206 31.544c13.517 13.513 24.228 29.555 31.549 47.209 7.311 17.656 11.069 36.578 11.069 55.688v727.592c0 38.594-15.329 75.607-42.619 102.897s-64.297 42.621-102.892 42.621h-873.116zM857.348 476.43c5.404 5.389 12.365 8.942 19.899 10.156s15.26 0.029 22.083-3.389l274.809-141.662v-327.417h-1018.626v145.519l192.52 171.275c5.947 5.926 13.761 9.611 22.114 10.434 8.355 0.822 16.736-1.27 23.724-5.922l193.54-129.002 269.937 270.009zM410.189 523.472c14.332 0 28.525 2.823 41.766 8.308s25.272 13.524 35.407 23.658 18.174 22.167 23.658 35.408c5.485 13.241 8.308 27.433 8.308 41.765s-2.823 28.525-8.308 41.766-13.524 25.272-23.658 35.407c-10.135 10.135-22.166 18.174-35.407 23.658s-27.434 8.308-41.766 8.308c-28.945 0-56.705-11.498-77.173-31.966s-31.966-48.227-31.966-77.173 11.498-56.705 31.966-77.173c20.468-20.468 48.227-31.966 77.173-31.966z" />
<glyph unicode="&#xe9c3;" glyph-name="folder" horiz-adv-x="1425" d="M1282.226 817.561h-682.857l-121.598 121.572c-6.606 6.623-14.456 11.876-23.099 15.457s-17.908 5.42-27.264 5.41h-284.939c-78.572 0-142.47-63.884-142.47-142.439v-739.121c0-78.559 63.898-142.439 142.47-142.439h1139.757c78.572 0 142.47 63.88 142.47 142.439v596.682c0 78.555-63.898 142.439-142.47 142.439z" />
<glyph unicode="&#xe9c4;" glyph-name="alert" d="M557.281 914.087c-17.715 33.911-72.802 33.911-90.518 0l-460.777-881.486c-4.148-7.901-6.204-16.757-5.969-25.702 0.236-8.942 2.755-17.674 7.313-25.338 4.558-7.668 10.998-14.004 18.694-18.399s16.385-6.697 25.22-6.681h921.555c8.827-0.020 17.51 2.281 25.203 6.672 7.688 4.391 14.127 10.727 18.678 18.391 4.555 7.66 7.070 16.384 7.303 25.326 0.229 8.937-1.827 17.785-5.976 25.678l-460.726 881.54zM563.22 112.038h-102.396v103.703h102.396v-103.703zM460.825 319.447v259.26h102.396l0.049-259.26h-102.445z" />
<glyph unicode="&#xe9c6;" glyph-name="hidden" d="M506.358 309.611c34.819 0 68.212 13.831 92.833 38.452 24.618 24.621 38.454 58.014 38.454 92.833 0 3.845-0.175 7.655-0.506 11.417l-142.199-142.199c3.763-0.328 7.561-0.504 11.418-0.504zM940.911 846.991l-50.074 50.029c-1.759 1.757-4.144 2.744-6.632 2.744-2.482 0-4.867-0.987-6.626-2.744l-128.145-128.179c-70.692 36.127-150.155 54.191-238.389 54.191-225.296 0-393.388-117.337-504.278-352.010-4.457-9.438-6.769-19.746-6.769-30.184s2.312-20.746 6.769-30.184c44.309-93.33 97.663-168.135 160.063-224.419l-124.006-123.958c-1.757-1.759-2.744-4.144-2.744-6.626 0-2.488 0.987-4.873 2.744-6.632l50.041-50.037c1.758-1.759 4.142-2.747 6.629-2.747s4.87 0.988 6.628 2.747l834.788 834.74c0.873 0.87 1.566 1.905 2.036 3.043 0.476 1.138 0.717 2.359 0.717 3.591s-0.241 2.453-0.717 3.591c-0.47 1.138-1.163 2.173-2.036 3.044zM300.051 440.896c-0.003 35.634 9.224 70.661 26.781 101.669s42.847 56.94 73.406 75.27c30.559 18.329 65.343 28.431 100.966 29.321s70.869-7.462 102.305-24.242l-56.993-56.992c-22.984 7.36-47.552 8.246-71.007 2.562s-44.891-17.719-61.956-34.784c-17.065-17.065-29.1-38.501-34.784-61.956s-4.798-48.023 2.562-71.007l-56.992-56.992c-15.993 29.882-24.337 63.259-24.288 97.151zM1015.326 471.129c-41.261 86.898-90.371 157.758-147.336 212.578l-168.96-168.972c14.246-37.23 17.402-77.788 9.090-116.775-8.306-38.986-27.732-74.732-55.916-102.915-28.184-28.19-63.932-47.61-102.918-55.922-38.986-8.306-79.544-5.15-116.775 9.090l-143.312-143.312c66.487-30.768 140.436-46.146 221.849-46.146 225.293 0 393.385 117.332 504.278 352.007 4.457 9.438 6.77 19.746 6.77 30.184s-2.313 20.746-6.77 30.184z" />
<glyph unicode="&#xe9c8;" glyph-name="unlocked" horiz-adv-x="709" d="M638.031 521.143h-425.354v219.429c0 38.797 14.938 76.005 41.528 103.439s62.653 42.846 100.257 42.846c37.604 0 73.667-15.412 100.257-42.846s41.528-64.642 41.528-103.439h70.892c0 58.195-22.407 114.008-62.291 155.159s-93.98 64.269-150.385 64.269c-56.405 0-110.501-23.118-150.385-64.269s-62.291-96.964-62.291-155.159v-219.429h-70.892c-18.802 0-36.834-7.706-50.128-21.423s-20.764-32.321-20.764-51.72v-438.855c0-19.401 7.469-38.006 20.764-51.72 13.295-13.722 31.327-21.425 50.128-21.425h567.138c18.801 0 36.833 7.704 50.129 21.425 13.295 13.714 20.764 32.319 20.764 51.72v438.855c0 19.398-7.469 38.003-20.764 51.72s-31.327 21.423-50.129 21.423zM638.031 9.145h-567.138v438.855h567.138v-438.855z" />
<glyph unicode="&#xe9c9;" glyph-name="seen" d="M354.732 448c0-32.931 13.082-64.513 36.368-87.798s54.868-36.368 87.798-36.368c32.931 0 64.513 13.082 87.799 36.368s36.367 54.868 36.367 87.798c0 32.931-13.082 64.513-36.367 87.798s-54.868 36.368-87.799 36.368c-32.931 0-64.513-13.082-87.798-36.368s-36.368-54.868-36.368-87.798zM960.265 476.603c-105.099 221.392-263.963 332.809-476.933 332.809-213.078 0-371.832-111.417-476.93-332.92-4.216-8.926-6.402-18.676-6.402-28.547s2.186-19.621 6.402-28.547c105.098-221.392 263.964-332.809 476.93-332.809 213.078 0 371.834 111.417 476.933 332.92 8.535 17.96 8.535 38.802 0 57.095zM478.898 252.882c-107.759 0-195.118 87.359-195.118 195.118s87.359 195.118 195.118 195.118c107.759 0 195.117-87.359 195.117-195.118s-87.359-195.118-195.117-195.118z" />
</font>
</defs>
</svg>
