<svg width="17" height="12" viewBox="0 0 17 12" fill="none" xmlns="http://www.w3.org/2000/svg">
  <path d="M5.8891 6C5.8891 6.5467 6.10628 7.07102 6.49286 7.45759C6.87944 7.84417 7.40375 8.06135 7.95045 8.06135C8.49716 8.06135 9.02147 7.84417 9.40805 7.45759C9.79462 7.07102 10.0118 6.5467 10.0118 6C10.0118 5.4533 9.79462 4.92898 9.40805 4.54241C9.02147 4.15583 8.49716 3.93865 7.95045 3.93865C7.40375 3.93865 6.87944 4.15583 6.49286 4.54241C6.10628 4.92898 5.8891 5.4533 5.8891 6ZM15.9419 5.52515C14.1971 1.84969 11.5597 0 8.02407 0C4.48665 0 1.85107 1.84969 0.10628 5.52699C0.0362957 5.67518 0 5.83704 0 6.00092C0 6.1648 0.0362957 6.32666 0.10628 6.47485C1.85107 10.1503 4.48849 12 8.02407 12C11.5615 12 14.1971 10.1503 15.9419 6.47301C16.0836 6.17485 16.0836 5.82883 15.9419 5.52515ZM7.95045 9.23926C6.16149 9.23926 4.71119 7.78896 4.71119 6C4.71119 4.21104 6.16149 2.76074 7.95045 2.76074C9.73941 2.76074 11.1897 4.21104 11.1897 6C11.1897 7.78896 9.73941 9.23926 7.95045 9.23926Z" fill="#03B1C7"/>
</svg>
