<svg width="18" height="16" viewBox="0 0 18 16" fill="none" xmlns="http://www.w3.org/2000/svg">
  <path d="M8.5007 10.0006L11.5009 7.00043M8.5007 10.0006V1V10.0006ZM8.5007 10.0006L5.50049 7.00043L8.5007 10.0006Z" stroke="#03B1C7" stroke-width="2" stroke-linecap="round" stroke-linejoin="round"/>
  <path d="M8.5007 10.0006L11.5009 7.00043M8.5007 10.0006V1V10.0006ZM8.5007 10.0006L5.50049 7.00043L8.5007 10.0006Z" stroke="#03B1C7" stroke-width="2" stroke-linecap="round" stroke-linejoin="round"/>
  <path d="M8.5007 10.0006L11.5009 7.00043M8.5007 10.0006V1V10.0006ZM8.5007 10.0006L5.50049 7.00043L8.5007 10.0006Z" stroke="#03B1C7" stroke-width="2" stroke-linecap="round" stroke-linejoin="round"/>
  <path d="M1 11.5005L1.46578 13.3644C1.5469 13.6889 1.73417 13.977 1.99782 14.1829C2.26147 14.3888 2.58637 14.5007 2.92089 14.5007H14.0802C14.4147 14.5007 14.7396 14.3888 15.0032 14.1829C15.2669 13.977 15.4542 13.6889 15.5353 13.3644L16.0011 11.5005" stroke="#03B1C7" stroke-width="2" stroke-linecap="round" stroke-linejoin="round"/>
  <path d="M1 11.5005L1.46578 13.3644C1.5469 13.6889 1.73417 13.977 1.99782 14.1829C2.26147 14.3888 2.58637 14.5007 2.92089 14.5007H14.0802C14.4147 14.5007 14.7396 14.3888 15.0032 14.1829C15.2669 13.977 15.4542 13.6889 15.5353 13.3644L16.0011 11.5005" stroke="#03B1C7" stroke-width="2" stroke-linecap="round" stroke-linejoin="round"/>
  <path d="M1 11.5005L1.46578 13.3644C1.5469 13.6889 1.73417 13.977 1.99782 14.1829C2.26147 14.3888 2.58637 14.5007 2.92089 14.5007H14.0802C14.4147 14.5007 14.7396 14.3888 15.0032 14.1829C15.2669 13.977 15.4542 13.6889 15.5353 13.3644L16.0011 11.5005" stroke="#03B1C7" stroke-width="2" stroke-linecap="round" stroke-linejoin="round"/>
</svg>
