<?xml version="1.0" encoding="utf-8"?>
<svg xmlns="http://www.w3.org/2000/svg" xmlns:xlink="http://www.w3.org/1999/xlink" style="margin: auto; background: none; display: block; shape-rendering: auto; animation-play-state: running; animation-delay: 0s;" width="214px" height="214px" viewBox="0 0 100 100" preserveAspectRatio="xMidYMid">
<g transform="translate(50 50)" style="animation-play-state: running; animation-delay: 0s;">
<g style="animation-play-state: running; animation-delay: 0s;">
<animateTransform attributeName="transform" type="rotate" values="0;45" keyTimes="0;1" dur="0.32679738562091504s" repeatCount="indefinite" style="animation-play-state: running; animation-delay: 0s;"></animateTransform><path d="M30.557323181195045 -9.5 L41.557323181195045 -9.5 L41.557323181195045 9.5 L30.557323181195045 9.5 A32 32 0 0 1 28.324804857604104 14.889776015059697 L28.324804857604104 14.889776015059697 L36.10297945065613 22.667950608111717 L22.667950608111724 36.10297945065612 L14.8897760150597 28.3248048576041 A32 32 0 0 1 9.5 30.557323181195045 L9.5 30.557323181195045 L9.5 41.557323181195045 L-9.499999999999996 41.557323181195045 L-9.499999999999996 30.557323181195045 A32 32 0 0 1 -14.889776015059697 28.324804857604104 L-14.889776015059697 28.324804857604104 L-22.667950608111717 36.10297945065613 L-36.10297945065612 22.667950608111724 L-28.3248048576041 14.889776015059702 A32 32 0 0 1 -30.55732318119504 9.500000000000002 L-30.55732318119504 9.500000000000002 L-41.557323181195045 9.500000000000004 L-41.557323181195045 -9.499999999999993 L-30.557323181195045 -9.499999999999995 A32 32 0 0 1 -28.324804857604104 -14.889776015059695 L-28.324804857604104 -14.889776015059695 L-36.10297945065613 -22.667950608111717 L-22.667950608111727 -36.10297945065612 L-14.889776015059704 -28.3248048576041 A32 32 0 0 1 -9.500000000000005 -30.55732318119504 L-9.500000000000005 -30.55732318119504 L-9.500000000000007 -41.557323181195045 L9.499999999999991 -41.557323181195045 L9.499999999999993 -30.557323181195045 A32 32 0 0 1 14.889776015059693 -28.324804857604104 L14.889776015059693 -28.324804857604104 L22.667950608111713 -36.10297945065613 L36.102979450656115 -22.66795060811173 L28.324804857604096 -14.889776015059706 A32 32 0 0 1 30.55732318119504 -9.500000000000007 M0 -23A23 23 0 1 0 0 23 A23 23 0 1 0 0 -23" fill="#03b1c7" style="animation-play-state: running; animation-delay: 0s;"></path></g></g>
<!-- [ldio] generated by https://loading.io/ --></svg>