<svg width="22" height="20" viewBox="0 0 22 20" fill="none" xmlns="http://www.w3.org/2000/svg">
<path d="M19.4851 2.4666C21.0773 4.36481 21.9789 6.76489 21.9789 9.2703C21.9789 15.1867 17.0491 20 10.9895 20C4.92985 20 0 15.1867 0 9.2703C0 6.36317 1.17145 3.64127 3.29853 1.60617C3.7968 1.12946 4.59655 1.13743 5.0848 1.62393C5.57305 2.11042 5.56488 2.89118 5.06661 3.36798C3.42846 4.93525 2.52632 7.03145 2.52632 9.2703C2.52632 13.8266 6.32286 17.5334 10.9895 17.5334C15.6561 17.5334 19.4386 13.8266 19.4386 9.2703C19.4386 7.48095 18.8562 5.76156 17.7614 4.35511V5.3443C17.7614 6.02541 17.1959 6.57759 16.4983 6.57759C15.8007 6.57759 15.2351 6.02541 15.2351 5.3443V1.23379C15.2351 1.23363 15.2351 1.23346 15.2351 1.23346C15.2351 0.552189 15.8287 0 16.5263 0H20.7368C21.4344 0 22 0.552189 22 1.2333C22 1.91441 21.4344 2.4666 20.7368 2.4666H19.4851Z" fill="#03B1C7"/>
</svg>
