<svg width="68" height="56" viewBox="0 0 68 56" fill="none" xmlns="http://www.w3.org/2000/svg">
  <path fill-rule="evenodd" clip-rule="evenodd" d="M15.5502 12.6116C18.0988 6.3885 24.4823 0.501953 34.0054 0.501953C44.2512 0.501953 52.9835 7.40679 54.8981 18.5806C57.6015 18.9814 60.4319 20.0069 62.7626 21.7217C65.6594 23.853 67.8272 27.1005 67.8272 31.4368C67.8272 35.6412 66.04 38.9861 63.1304 41.2282C60.2783 43.426 56.4824 44.4702 52.5017 44.4702H42.4608C41.2934 44.4702 40.347 43.5329 40.347 42.3765C40.347 41.2202 41.2934 40.2828 42.4608 40.2828H52.5017C55.7873 40.2828 58.5972 39.4159 60.5344 37.9232C62.414 36.4747 63.5994 34.3497 63.5994 31.4368C63.5994 28.6557 62.2662 26.5728 60.2416 25.0832C58.1649 23.5553 55.4125 22.7102 52.9256 22.5882C51.8843 22.5371 51.0361 21.7417 50.9277 20.7147C49.8627 10.6217 42.5389 4.68941 34.0054 4.68941C25.9474 4.68941 20.7955 9.95462 19.1074 15.1692C18.8493 15.9667 18.1362 16.5351 17.2944 16.6143C10.0101 17.2997 4.41136 21.7415 4.41136 28.4532C4.41136 35.2006 10.2978 40.2828 18.1515 40.2828H25.55C26.7174 40.2828 27.6638 41.2202 27.6638 42.3765C27.6638 43.5329 26.7174 44.4702 25.55 44.4702H18.1515C8.56573 44.4702 0.18364 38.0683 0.18364 28.4532C0.18364 19.3089 7.49297 13.8458 15.5502 12.6116Z" fill="#D4D4D4"/>
  <path fill-rule="evenodd" clip-rule="evenodd" d="M33.0548 18.0185C33.8913 17.2113 35.2476 17.2113 36.0841 18.0185L44.6523 26.286C45.4888 27.0932 45.4888 28.4019 44.6523 29.209C43.8158 30.0162 42.4595 30.0162 41.623 29.209L34.5695 22.403L27.5159 29.209C26.6794 30.0162 25.3231 30.0162 24.4866 29.209C23.6501 28.4019 23.6501 27.0932 24.4866 26.286L33.0548 18.0185Z" fill="#03B1C7"/>
  <path fill-rule="evenodd" clip-rule="evenodd" d="M34.0058 19.667C35.251 19.667 36.2605 20.6156 36.2605 21.7859V53.6247C36.2605 54.7949 35.251 55.7435 34.0058 55.7435C32.7605 55.7435 31.751 54.7949 31.751 53.6247V21.7859C31.751 20.6156 32.7605 19.667 34.0058 19.667Z" fill="#03B1C7"/>
</svg>
