<?xml version="1.0" encoding="utf-8"?>
<!-- Generator: Adobe Illustrator 21.0.2, SVG Export Plug-In . SVG Version: 6.00 Build 0)  -->
<svg version="1.1" id="Layer_1" xmlns="http://www.w3.org/2000/svg" xmlns:xlink="http://www.w3.org/1999/xlink" x="0px" y="0px"
	 viewBox="0 0 133.7 36.2" style="enable-background:new 0 0 133.7 36.2;" xml:space="preserve">
<style type="text/css">
	.st0{fill:#FFFFFF;}
	.st1{fill:#44A9AC;}
</style>
<path class="st0" d="M28.8,23.9c0,1.5-0.1,2.6-0.2,3.3c-0.2,0.6-0.4,1.2-0.8,1.7c-0.6,0.8-1.5,1.4-2.6,1.9c-1.1,0.4-2.4,0.6-4,0.6
	c-1.3,0-2.2-0.1-2.8-0.4c-0.6-0.2-0.9-0.6-0.9-1.2c0-0.3,0.1-0.6,0.4-0.9c0.3-0.3,0.6-0.4,1-0.4c0.3,0,0.8,0,1.4,0.1
	c0.6,0.1,1.1,0.1,1.4,0.1c1.6,0,2.8-0.4,3.5-1.1c0.7-0.8,1-2,1-3.9v-2c-0.7,0.8-1.4,1.4-2.2,1.7c-0.8,0.4-1.8,0.5-2.8,0.5
	c-2.1,0-3.8-0.7-5.1-2.1c-1.4-1.4-2-3.1-2-5.2c0-2.1,0.7-3.9,2.1-5.3c1.4-1.4,3.1-2.1,5.2-2.1c0.9,0,1.7,0.2,2.5,0.5
	c0.8,0.3,1.6,0.8,2.5,1.4v-1.2c0-0.2,0.1-0.4,0.2-0.5c0.1-0.1,0.4-0.2,0.7-0.2h2.5c0.4,0,0.8,0.1,1,0.3c0.2,0.2,0.3,0.5,0.3,0.9
	c0,0.4-0.1,0.8-0.4,0.9c-0.3,0.2-0.8,0.3-1.5,0.3h-0.3V23.9z M21.6,11.9c-1.5,0-2.6,0.4-3.6,1.3c-0.9,0.9-1.4,2.1-1.4,3.5
	c0,1.4,0.5,2.6,1.4,3.5c0.9,0.9,2.1,1.4,3.6,1.4c1.4,0,2.6-0.5,3.5-1.4c0.9-0.9,1.4-2.1,1.4-3.5c0-1.4-0.5-2.6-1.4-3.5
	C24.2,12.4,23,11.9,21.6,11.9z"/>
<path class="st0" d="M74.8,18.5v4.9c0,0.4-0.1,0.8-0.3,1.1c-0.2,0.3-0.4,0.4-0.7,0.4h-3.1c-0.4,0-0.8-0.1-1-0.3
	c-0.2-0.2-0.3-0.5-0.3-0.9c0-0.4,0.1-0.7,0.4-0.9c0.3-0.2,0.8-0.2,1.7-0.2h0.8v-17h-0.7c-1,0-1.6-0.1-1.8-0.3
	c-0.3-0.2-0.4-0.5-0.4-0.9c0-0.4,0.1-0.7,0.3-0.9s0.6-0.3,1-0.3h3.2c0.3,0,0.5,0.1,0.7,0.2c0.2,0.1,0.2,0.3,0.2,0.5v11.9l4.8-4
	c-0.4-0.2-0.6-0.3-0.8-0.5c-0.2-0.2-0.3-0.4-0.3-0.7c0-0.3,0.1-0.6,0.4-0.7c0.2-0.2,0.6-0.2,1.1-0.2h4.5c0.4,0,0.7,0.1,1,0.3
	c0.2,0.2,0.3,0.5,0.3,0.8c0,0.7-0.5,1.1-1.6,1.2c-0.2,0-0.4,0-0.5,0.1c-0.5,0.1-1,0.2-1.5,0.5c-0.5,0.3-1.1,0.7-1.6,1.2l-2.4,2.1
	l6.3,6.8h1.4c0.5,0,0.8,0.1,1,0.3c0.2,0.2,0.3,0.5,0.3,0.9c0,0.4-0.1,0.7-0.3,0.9c-0.2,0.2-0.6,0.3-1,0.3h-4.5
	c-0.5,0-0.8-0.1-1.1-0.2c-0.2-0.2-0.3-0.4-0.3-0.8c0-0.3,0.1-0.6,0.3-0.8c0.2-0.2,0.5-0.4,1-0.5l-4.9-5.4L74.8,18.5z"/>
<path class="st0" d="M90.2,23.6v-3c0-0.5,0.1-0.8,0.3-1c0.2-0.2,0.5-0.3,0.9-0.3c0.5,0,0.8,0.3,1.1,0.9c0.2,0.4,0.3,0.7,0.5,0.8
	c0.5,0.6,1.2,1.1,2.1,1.4c0.9,0.4,1.9,0.5,3,0.5c1.2,0,2.1-0.2,2.8-0.7c0.7-0.5,1.1-1.1,1.1-1.9c0-0.8-0.3-1.3-0.9-1.7
	c-0.6-0.3-1.5-0.5-2.9-0.5h-0.9c-2.3,0-4-0.4-5.2-1.2c-1.2-0.8-1.8-1.9-1.8-3.4c0-1.5,0.6-2.6,1.7-3.4c1.2-0.8,2.8-1.2,4.9-1.2
	c0.9,0,1.7,0.1,2.6,0.4c0.9,0.2,1.3,0.4,1.4,0.4c0.1,0,0.4-0.1,0.7-0.3c0.3-0.2,0.7-0.3,1-0.3c0.4,0,0.7,0.1,0.8,0.4
	c0.2,0.3,0.3,0.7,0.3,1.2v1.9c0,0.6-0.1,1-0.3,1.3c-0.2,0.3-0.5,0.4-0.8,0.4c-0.3,0-0.7-0.3-1.2-0.8c-0.3-0.4-0.6-0.7-0.8-0.9
	c-0.6-0.5-1.2-0.9-1.9-1.2c-0.7-0.2-1.4-0.4-2.3-0.4c-1,0-1.9,0.2-2.5,0.7c-0.6,0.5-1,1-1,1.8c0,0.7,0.3,1.2,1,1.5
	c0.7,0.3,2.1,0.5,4.2,0.5c2.3,0.1,4,0.5,5,1.2c1.1,0.7,1.6,1.9,1.6,3.5c0,1.5-0.6,2.7-1.8,3.6c-1.2,0.9-2.8,1.3-4.7,1.3
	c-0.6,0-1.3-0.1-2.1-0.2c-0.8-0.1-1.7-0.3-2.9-0.6c-0.4,0.3-0.7,0.4-1,0.6c-0.3,0.1-0.5,0.2-0.7,0.2c-0.4,0-0.7-0.1-0.9-0.4
	C90.3,24.5,90.2,24.1,90.2,23.6z"/>
<path class="st1" d="M129.9,17.2l-12.1-5.5c-0.5-0.2-0.9-0.5-1.1-0.7c-0.2-0.2-0.3-0.5-0.3-0.8c0-0.3,0.1-0.6,0.3-0.8
	c0.2-0.2,0.5-0.3,0.8-0.3c0.2,0,0.4,0,0.6,0.1c0.2,0.1,0.5,0.2,0.8,0.3l13.2,6.1c0,0,0.1,0.1,0.2,0.1c1,0.4,1.5,0.9,1.5,1.5
	c0,0.5-0.5,1-1.5,1.5c-0.1,0-0.2,0.1-0.2,0.1l-13.2,6.2l-0.1,0c-0.6,0.3-1,0.4-1.3,0.4c-0.3,0-0.6-0.1-0.8-0.3
	c-0.2-0.2-0.3-0.5-0.3-0.8c0-0.3,0.1-0.5,0.3-0.8c0.2-0.2,0.6-0.5,1.1-0.7L129.9,17.2z"/>
<path class="st1" d="M109.1,14.4c0-0.5,0.2-1,0.6-1.3c0.4-0.3,0.9-0.5,1.5-0.5c0.6,0,1.1,0.2,1.5,0.5c0.4,0.3,0.6,0.8,0.6,1.3
	c0,0.6-0.2,1-0.6,1.3c-0.4,0.3-0.9,0.5-1.5,0.5c-0.6,0-1.1-0.2-1.5-0.5C109.3,15.4,109.1,14.9,109.1,14.4z M109.1,20.1
	c0-0.5,0.2-1,0.6-1.3c0.4-0.3,0.9-0.5,1.5-0.5c0.6,0,1.1,0.2,1.5,0.5s0.6,0.8,0.6,1.3c0,0.6-0.2,1-0.6,1.3c-0.4,0.3-0.9,0.5-1.5,0.5
	c-0.6,0-1.1-0.2-1.5-0.5C109.3,21.1,109.1,20.7,109.1,20.1z"/>
<path class="st1" d="M3.9,3.8C4,3.6,4,3.4,4.1,3.4c0.1-0.1,0.2-0.1,0.5-0.1H7c0.1,0,0.2,0,0.2,0.1c0.1,0,0.1,0.1,0.1,0.2
	c0,0,0,0.1,0,0.1c0,0.1,0,0.1-0.1,0.2l-3,6.1c-0.1,0.1-0.1,0.2-0.2,0.3c-0.1,0.1-0.2,0.1-0.3,0.1c0,0,0,0-0.1,0c0,0-0.1,0-0.1,0
	L2.8,10c-0.1,0-0.2-0.1-0.3-0.2C2.5,9.7,2.5,9.7,2.5,9.6c0,0,0-0.1,0-0.1c0,0,0-0.1,0-0.1L3.9,3.8z M9.2,3.8
	c0.1-0.3,0.1-0.4,0.2-0.5c0.1-0.1,0.2-0.1,0.5-0.1h2.4c0.1,0,0.2,0,0.2,0.1c0.1,0,0.1,0.1,0.1,0.2c0,0,0,0.1,0,0.1
	c0,0.1,0,0.1-0.1,0.2L9.6,9.9c-0.1,0.1-0.1,0.2-0.2,0.3c-0.1,0.1-0.2,0.1-0.3,0.1c0,0,0,0-0.1,0c0,0-0.1,0-0.1,0L8.2,10
	C8,9.9,7.9,9.9,7.9,9.8C7.8,9.7,7.8,9.7,7.8,9.6c0-0.1,0-0.1,0-0.2c0,0,0-0.1,0-0.1L9.2,3.8z"/>
<g>
	<path class="st1" d="M40.5,25.1L40.5,25.1c-4.1,0-7.5-3.2-7.9-7.3c-0.4-4.4,2.8-8.2,7.1-8.6c2.2-0.2,4.4,0.6,6.1,2.2c0,0,0,0,0,0
		l0,0c0.4,0.4,0.8,0.9,1.2,1.4c0,0,0.3,0.5,0.3,0.8c0,0.4-0.1,0.5-0.4,0.7l-0.3,0.2l-6.3,4.1c-0.2,0.1-0.4,0.1-0.5,0.2
		c-0.8,0.1-1.5-0.5-1.6-1.3c0-0.5,0.2-0.9,0.5-1.2l4.4-2.9c-0.9-0.7-2-1-3.1-1c-2.5,0.2-4.4,2.4-4.2,5c0.2,2.5,2.4,4.4,4.9,4.2
		c1.6-0.1,3.1-1.1,3.8-2.6c0-0.1,0.1-0.1,0.1-0.2c0-0.1,0-0.1,0.1-0.2c0.2-0.5,0.7-0.8,1.3-0.8c0.9-0.1,1.7,0.6,1.8,1.5
		c0,0.2,0,0.2,0,0.4l0,0c0,0.1-0.1,0.3-0.2,0.6C46.6,23,44,24.8,41.2,25C41,25,40.8,25.1,40.5,25.1z"/>
</g>
<g>
	<path class="st1" d="M58.3,25.1L58.3,25.1c-4.1,0-7.5-3.2-7.9-7.3c-0.4-4.4,2.8-8.2,7.1-8.6c2.2-0.2,4.4,0.6,6.1,2.2l0.1,0.1
		c0.4,0.4,0.8,0.9,1.2,1.4c0,0,0.3,0.5,0.3,0.8c0,0.3-0.1,0.5-0.4,0.7l-0.3,0.2l-6.3,4.1c-0.2,0.1-0.4,0.1-0.5,0.2
		c-0.8,0.1-1.5-0.5-1.6-1.3c0-0.5,0.2-0.9,0.5-1.2l4.4-2.9c-0.9-0.7-2-1-3.1-1c-1.2,0.1-2.3,0.7-3.1,1.6c-0.8,0.9-1.2,2.1-1.1,3.3
		c0.2,2.5,2.4,4.4,4.9,4.2c1.6-0.1,3.1-1.1,3.8-2.6c0-0.1,0.1-0.1,0.1-0.2c0-0.1,0-0.1,0.1-0.2c0.2-0.5,0.7-0.8,1.3-0.8
		c0.9-0.1,1.7,0.6,1.8,1.5c0,0.2,0,0.3,0,0.4c0,0.2-0.1,0.4-0.2,0.6C64.4,23,61.8,24.8,59,25C58.8,25,58.5,25.1,58.3,25.1z"/>
</g>
</svg>
